<svg version="1.1" id="Layer_1" xmlns="http://www.w3.org/2000/svg" xmlns:xlink="http://www.w3.org/1999/xlink" x="0px" y="0px"
	 width="100%" viewBox="0 0 213 109" enable-background="new 0 0 213 109" xml:space="preserve">
<path fill="#FFFFFF" opacity="1.000000" stroke="none" 
	d="
M94.000000,110.000000 
	C63.021431,110.000000 32.042862,110.000000 1.032145,110.000000 
	C1.032145,73.713234 1.032145,37.426441 1.032145,1.069821 
	C71.904312,1.069821 142.808716,1.069821 213.856567,1.069821 
	C213.856567,37.212082 213.856567,73.424927 213.856567,110.000000 
	C177.979919,110.000000 141.958618,110.000000 105.472755,109.620995 
	C109.193634,98.785088 113.303963,88.296906 117.633537,77.900032 
	C118.415871,76.021385 119.788086,74.063232 121.432877,72.939095 
	C124.503738,70.840324 127.974419,69.326553 131.771881,67.307091 
	C136.685135,74.648773 145.102463,68.491638 151.541214,71.640038 
	C151.730347,71.732521 152.220276,71.469360 152.420471,71.240967 
	C155.640564,67.567245 159.152054,68.163017 162.868027,70.395958 
	C163.535736,70.797195 164.599823,71.136726 165.237503,70.885925 
	C167.917343,69.831978 169.279037,70.871307 170.871109,73.102142 
	C173.023926,76.118713 176.281067,75.462982 177.824783,71.995918 
	C178.423859,70.650452 178.477783,69.062767 179.073502,67.715149 
	C179.637024,66.440384 180.554565,64.398964 181.371262,64.372246 
	C182.645935,64.330544 183.946579,65.742279 185.272568,66.472115 
	C188.045166,67.998177 191.449356,71.311859 193.510452,70.627510 
	C198.990570,68.807930 204.082855,65.525513 208.882095,62.182705 
	C209.923050,61.457668 209.091690,58.044579 209.122696,55.869576 
	C207.341263,56.096390 205.436661,56.005222 203.811218,56.634777 
	C201.996613,57.337597 200.435501,58.694847 197.658310,60.476738 
	C198.635056,58.091484 198.986191,57.021473 199.494614,56.032303 
	C201.012817,53.078583 202.301926,50.105339 198.909592,47.586136 
	C195.424744,44.998230 192.353241,46.362778 189.574921,48.950100 
	C187.869980,50.537811 186.363083,52.353161 184.572266,53.829823 
	C182.394012,55.625965 180.564041,55.565193 178.951691,52.718369 
	C178.098358,51.211674 175.926819,49.057072 174.945343,49.330509 
	C173.300018,49.788902 171.906174,51.808533 170.835754,53.450939 
	C170.063217,54.636269 170.357574,56.570976 169.506790,57.637589 
	C168.442429,58.971989 166.692215,59.759331 165.238068,60.782825 
	C165.156845,59.190487 164.522171,57.351009 165.101501,56.053623 
	C166.642944,52.601597 166.147522,49.967793 163.139297,47.737831 
	C160.080002,45.469994 156.864685,45.243679 153.994888,47.736126 
	C151.900177,49.555393 150.304306,51.945744 148.465240,54.063442 
	C146.064789,56.827595 143.643784,59.573898 140.316223,63.373005 
	C139.599136,60.486450 139.061432,59.284008 139.041809,58.073174 
	C138.964874,53.325005 138.647827,48.993652 131.903824,50.645390 
	C131.449539,50.756645 130.780182,50.068123 130.234375,49.715202 
	C124.124634,45.764652 121.982124,46.310947 119.001114,53.077816 
	C114.587128,63.097572 110.392517,73.213799 106.027962,83.255676 
	C105.424820,84.643356 104.383827,85.840721 103.545547,87.126190 
	C104.400627,74.622627 105.982780,62.654892 107.125229,50.645332 
	C107.338112,48.407463 106.451332,45.161457 104.864662,43.902985 
	C103.184662,42.570484 99.446556,41.978294 97.705048,42.976944 
	C94.421135,44.860077 91.321465,47.722313 89.246979,50.897427 
	C86.373070,55.296127 82.815163,58.302750 77.827385,59.699425 
	C76.486862,57.374084 75.295494,55.352200 74.055641,52.963745 
	C73.281647,51.378654 72.556129,50.160133 71.833878,48.590508 
	C70.222900,45.159561 68.608658,42.079727 66.950821,38.641716 
	C64.380577,33.477211 61.853924,28.670876 59.239738,23.504456 
	C56.643848,17.853823 54.135487,12.563278 51.072395,6.102718 
	C46.244892,16.212357 42.017750,25.064734 37.557926,34.133366 
	C36.468922,35.562862 35.612598,36.776108 34.471195,38.178146 
	C33.315983,40.521183 32.445847,42.675426 31.575712,44.829670 
	C31.888443,44.976627 32.201176,45.123589 32.513905,45.270550 
	C33.193184,44.452614 33.872463,43.634682 34.443272,42.947357 
	C35.013042,44.389244 35.535786,45.712116 36.022003,47.346916 
	C36.297356,48.415813 36.609238,49.172791 36.846550,49.954506 
	C36.771980,49.979240 36.643497,50.069683 36.415306,50.362419 
	C36.132690,53.263298 36.078270,55.871445 35.622372,58.602737 
	C33.827057,58.685242 32.433228,58.644592 31.027977,58.228191 
	C31.016558,54.429466 31.016558,51.006496 31.016558,47.583523 
	C30.762548,47.350014 30.508541,47.116505 30.254532,46.882996 
	C28.507793,50.600105 26.761053,54.317219 24.911211,58.381947 
	C24.754179,58.881855 24.632732,59.047840 24.660271,59.183609 
	C24.718927,59.472782 24.854940,59.746265 24.994270,60.024670 
	C25.029291,60.023163 25.037830,59.953579 24.732182,59.954773 
	C24.414978,60.547935 24.403421,61.139908 24.123211,61.842186 
	C23.582392,62.221336 23.310226,62.490181 22.739538,62.989655 
	C22.275208,64.142624 22.109398,65.064964 21.970921,65.995651 
	C21.998255,66.004005 22.005690,65.947334 21.656765,65.922386 
	C21.030729,66.273026 20.753620,66.648613 20.341995,67.136765 
	C20.032293,67.425262 19.946835,67.637344 19.860470,68.213104 
	C19.300962,69.561188 18.832087,70.581726 18.158798,71.874252 
	C17.628216,73.438911 17.302048,74.731598 17.000702,76.017319 
	C17.025524,76.010368 17.015894,75.959213 16.708717,75.920815 
	C16.226789,76.241783 16.052038,76.601158 15.614803,77.203758 
	C15.223978,78.141876 15.095634,78.836754 14.991611,79.519852 
	C15.015933,79.508057 14.990599,79.460304 14.632479,79.654808 
	C15.171419,80.716148 16.068480,81.582985 16.796463,82.645538 
	C16.424242,83.304489 16.221098,83.767723 15.985567,84.287910 
	C15.953181,84.344872 15.991605,84.470154 15.738598,84.668839 
	C15.312660,85.247963 15.139728,85.628410 14.987288,86.006927 
	C15.007781,86.004997 14.993728,85.966309 14.671249,86.072678 
	C14.223022,86.793495 14.097273,87.407951 13.993954,88.017265 
	C14.016384,88.012131 14.008296,87.966820 13.701429,87.848251 
	C12.983195,87.876869 12.571829,88.024040 11.776984,88.153297 
	C9.725813,90.290367 8.058120,92.445351 6.390426,94.600342 
	C6.778831,95.133598 7.167238,95.666855 7.555644,96.200119 
	C11.034043,95.876312 14.512442,95.552513 18.442005,95.262024 
	C21.598837,95.189842 24.304504,95.084351 27.258810,95.046158 
	C27.676661,95.084145 27.845873,95.054832 28.453674,95.081223 
	C30.952425,95.048981 33.012585,94.961037 35.457848,94.966141 
	C36.895966,95.042694 37.948975,95.026199 39.271896,95.318810 
	C43.080509,95.395363 47.061970,98.018562 50.286499,93.806877 
	C51.006950,92.357079 51.455257,91.104652 51.938637,89.493904 
	C51.995251,88.415695 52.016796,87.695808 52.010841,86.982224 
	C51.983337,86.988533 51.995483,87.043648 52.264496,86.996223 
	C52.671257,86.628876 52.809006,86.308945 53.072258,85.662407 
	C52.789661,84.096024 52.381557,82.856255 51.723682,81.434784 
	C50.302532,81.506836 49.131149,81.760597 47.768349,81.878647 
	C47.342590,81.530640 47.149086,81.286049 47.001534,80.751144 
	C47.000355,80.321205 46.994045,80.149284 46.933907,79.636078 
	C46.159653,78.850716 45.439232,78.406631 44.712315,77.977859 
	C44.705822,77.993187 44.748684,77.968880 44.489601,77.702042 
	C42.890442,76.822083 41.550369,76.208969 40.182373,75.257996 
	C39.885990,74.074448 39.617531,73.228760 39.705971,72.240982 
	C41.095573,71.154007 42.128281,70.209114 43.130688,69.291946 
	C41.299286,68.717331 40.158295,68.359337 39.017467,67.592560 
	C39.678303,65.454231 40.338974,63.724697 41.131721,62.279518 
	C41.883385,64.046967 42.502975,65.530060 43.718246,68.439011 
	C46.145779,62.530113 48.084141,57.811901 50.025448,53.060661 
	C50.028389,53.027634 50.094673,53.025665 50.436073,53.019806 
	C51.233044,52.983196 51.688610,52.952438 52.399666,53.149498 
	C55.787422,59.882401 58.919685,66.387489 62.037621,73.294113 
	C60.886276,76.748383 59.159859,79.730202 58.781563,82.874222 
	C58.418819,85.889008 58.409184,90.130989 60.176907,91.876427 
	C61.865616,93.543823 66.050087,92.917694 69.125587,92.838303 
	C70.470909,92.803566 71.786575,91.620277 73.421066,91.127861 
	C78.952530,95.014374 84.921860,95.221016 91.041687,95.356689 
	C92.061050,100.507339 93.030525,105.253670 94.000000,110.000000 
z"/>
<path fill="#F9F8F4" opacity="1.000000" stroke="none" 
	d="
M73.115707,90.958557 
	C71.786575,91.620277 70.470909,92.803566 69.125587,92.838303 
	C66.050087,92.917694 61.865616,93.543823 60.176907,91.876427 
	C58.409184,90.130989 58.418819,85.889008 58.781563,82.874222 
	C59.159859,79.730202 60.886276,76.748383 62.382366,73.307068 
	C63.910652,71.969398 65.079865,71.020317 66.240570,70.078140 
	C62.722416,65.446198 56.636177,62.738922 59.958828,55.778202 
	C62.411526,50.639961 66.125015,48.186729 71.830612,48.941616 
	C72.556129,50.160133 73.281647,51.378654 74.003693,53.287331 
	C72.614136,55.636597 71.228050,57.295704 69.934082,58.844547 
	C71.001198,60.216614 72.202461,61.761158 73.503120,63.433502 
	C75.394539,61.982986 76.685539,60.992931 77.976540,60.002876 
	C82.815163,58.302750 86.373070,55.296127 89.246979,50.897427 
	C91.321465,47.722313 94.421135,44.860077 97.705048,42.976944 
	C99.446556,41.978294 103.184662,42.570484 104.864662,43.902985 
	C106.451332,45.161457 107.338112,48.407463 107.125229,50.645332 
	C105.982780,62.654892 104.400627,74.622627 103.545547,87.126190 
	C104.383827,85.840721 105.424820,84.643356 106.027962,83.255676 
	C110.392517,73.213799 114.587128,63.097572 119.001114,53.077816 
	C121.982124,46.310947 124.124634,45.764652 130.234375,49.715202 
	C130.780182,50.068123 131.449539,50.756645 131.903824,50.645390 
	C138.647827,48.993652 138.964874,53.325005 139.041809,58.073174 
	C139.061432,59.284008 139.599136,60.486450 140.316223,63.373005 
	C143.643784,59.573898 146.064789,56.827595 148.465240,54.063442 
	C150.304306,51.945744 151.900177,49.555393 153.994888,47.736126 
	C156.864685,45.243679 160.080002,45.469994 163.139297,47.737831 
	C166.147522,49.967793 166.642944,52.601597 165.101501,56.053623 
	C164.522171,57.351009 165.156845,59.190487 165.238068,60.782825 
	C166.692215,59.759331 168.442429,58.971989 169.506790,57.637589 
	C170.357574,56.570976 170.063217,54.636269 170.835754,53.450939 
	C171.906174,51.808533 173.300018,49.788902 174.945343,49.330509 
	C175.926819,49.057072 178.098358,51.211674 178.951691,52.718369 
	C180.564041,55.565193 182.394012,55.625965 184.572266,53.829823 
	C186.363083,52.353161 187.869980,50.537811 189.574921,48.950100 
	C192.353241,46.362778 195.424744,44.998230 198.909592,47.586136 
	C202.301926,50.105339 201.012817,53.078583 199.494614,56.032303 
	C198.986191,57.021473 198.635056,58.091484 197.658310,60.476738 
	C200.435501,58.694847 201.996613,57.337597 203.811218,56.634777 
	C205.436661,56.005222 207.341263,56.096390 209.122696,55.869576 
	C209.091690,58.044579 209.923050,61.457668 208.882095,62.182705 
	C204.082855,65.525513 198.990570,68.807930 193.510452,70.627510 
	C191.449356,71.311859 188.045166,67.998177 185.272568,66.472115 
	C183.946579,65.742279 182.645935,64.330544 181.371262,64.372246 
	C180.554565,64.398964 179.637024,66.440384 179.073502,67.715149 
	C178.477783,69.062767 178.423859,70.650452 177.824783,71.995918 
	C176.281067,75.462982 173.023926,76.118713 170.871109,73.102142 
	C169.279037,70.871307 167.917343,69.831978 165.237503,70.885925 
	C164.599823,71.136726 163.535736,70.797195 162.868027,70.395958 
	C159.152054,68.163017 155.640564,67.567245 152.420471,71.240967 
	C152.220276,71.469360 151.730347,71.732521 151.541214,71.640038 
	C145.102463,68.491638 136.685135,74.648773 131.771881,67.307091 
	C127.974419,69.326553 124.503738,70.840324 121.432877,72.939095 
	C119.788086,74.063232 118.415871,76.021385 117.633537,77.900032 
	C113.303963,88.296906 109.193634,98.785088 105.004097,109.620995 
	C101.638710,110.000000 98.277428,110.000000 94.458069,110.000000 
	C93.030525,105.253670 92.061050,100.507339 91.177994,94.994499 
	C90.848892,90.910614 91.167458,87.263420 89.857529,84.347893 
	C87.488930,79.076080 84.148071,74.241096 81.213181,69.223709 
	C80.740494,69.092064 80.267815,68.960426 79.795128,68.828781 
	C78.537048,76.561707 77.497543,84.375069 73.115707,90.958557 
M98.570152,66.966354 
	C97.265564,75.835831 95.707565,84.678856 94.777481,93.587433 
	C94.389603,97.302597 94.862160,101.280876 95.806023,104.915527 
	C96.857231,108.963539 100.385666,109.457169 102.742348,105.958611 
	C104.570786,103.244255 105.748993,100.056602 106.988586,96.987389 
	C110.986160,87.089417 114.878487,77.148933 118.559959,67.859253 
	C128.501572,71.676414 128.191010,61.578972 132.803040,59.148609 
	C136.358856,70.617493 137.434372,71.020660 147.108948,65.022133 
	C148.287384,66.365044 149.367661,68.592461 150.483459,68.610405 
	C151.818558,68.631882 153.401703,66.948204 154.477890,65.667351 
	C155.662811,64.257080 156.393875,62.465469 157.488144,60.550377 
	C161.614014,68.901070 163.068176,69.312706 172.389648,65.053787 
	C172.638138,67.560127 172.880341,70.003120 173.122543,72.446114 
	C173.523956,72.555840 173.925369,72.665558 174.326782,72.775276 
	C177.275421,67.891754 175.019547,57.738453 185.212372,61.229160 
	C187.363831,63.908524 189.738647,67.502983 192.512619,67.843239 
	C199.491837,68.699333 203.549637,63.133442 207.751572,58.419777 
	C206.511246,58.313377 205.531631,58.707031 204.666809,59.275383 
	C201.776459,61.174927 199.126312,63.587612 196.012833,64.963425 
	C191.929794,66.767685 190.334503,65.415192 189.709747,60.884586 
	C192.052963,59.120567 194.623581,57.728035 196.391281,55.651886 
	C197.458435,54.398540 197.278549,52.083427 197.658997,50.245399 
	C195.683517,50.387348 192.487930,49.823799 191.931427,50.786240 
	C188.434525,56.833904 182.573380,58.026371 176.606094,59.254730 
	C176.516327,59.273209 176.399277,59.159096 176.288666,59.106495 
	C176.171463,56.615528 176.054245,54.124561 175.937042,51.633598 
	C175.326782,51.563904 174.716522,51.494213 174.106277,51.424522 
	C173.675858,53.480618 173.207687,55.529686 172.823471,57.594383 
	C172.179733,61.053719 167.924377,65.308754 165.056824,64.958817 
	C160.985306,64.461952 161.164062,61.095867 160.823425,58.123756 
	C160.681046,56.881386 160.337891,55.662029 160.107758,54.538422 
	C161.451813,53.873699 162.569321,53.321011 163.773529,52.725445 
	C161.502777,48.319004 158.421585,47.980347 155.049515,50.566769 
	C153.388870,51.840500 152.318497,53.865414 150.905762,55.484768 
	C148.306900,58.463726 145.908493,61.687416 142.953690,64.267586 
	C139.568832,67.223274 137.252502,66.248093 136.418533,61.749176 
	C135.910904,59.010715 135.994186,56.162712 135.744217,52.321728 
	C129.242218,54.917892 128.351471,61.862862 122.617867,64.870560 
	C124.052528,59.977310 125.487190,55.084057 126.921860,50.190804 
	C126.470985,49.887180 126.020111,49.583557 125.569244,49.279934 
	C124.283798,50.802761 122.526382,52.126637 121.787376,53.879799 
	C115.728752,68.252876 109.880585,82.714516 103.914307,97.126831 
	C102.814384,99.783821 101.469322,102.339325 100.237404,104.941673 
	C99.630127,104.814018 99.022850,104.686356 98.415573,104.558693 
	C98.415573,101.179802 97.993034,97.736862 98.493660,94.433838 
	C100.087593,83.917465 102.134346,73.469948 103.750595,62.956543 
	C104.139893,60.424191 103.542450,57.740143 103.398788,55.125858 
	C101.333099,56.759048 99.085510,58.212051 97.245796,60.069107 
	C94.702568,62.636307 92.466576,65.507866 90.099007,68.249077 
	C89.618546,67.839249 89.138084,67.429428 88.657623,67.019600 
	C93.146622,60.317513 92.466019,49.286491 104.838364,49.488251 
	C103.203461,44.742962 100.904106,43.530529 97.512962,45.983860 
	C95.023682,47.784737 92.577385,50.181641 91.192085,52.869602 
	C87.297928,60.425560 78.667900,61.364693 73.514336,67.421898 
	C70.732193,64.501343 67.422943,62.498577 66.742393,59.826340 
	C66.239265,57.850769 69.160217,55.003166 70.664886,52.351646 
	C66.818817,51.018593 64.818924,53.236626 62.981339,56.219273 
	C61.199249,59.111835 61.635754,61.457340 64.101524,63.602802 
	C66.322350,65.535133 68.539459,67.471725 70.354942,69.054802 
	C65.942436,76.800034 56.463463,81.492104 61.906898,91.700478 
	C70.879807,90.248871 76.582932,82.868057 76.004875,74.003418 
	C75.637634,68.371819 78.179901,65.355682 84.825005,63.977612 
	C85.056793,66.072578 85.189613,68.147034 85.532326,70.186218 
	C86.217331,74.262024 88.231133,75.073082 91.232315,72.304184 
	C93.286240,70.409218 94.960701,68.102959 97.734909,66.058838 
	C98.044662,66.088051 98.354416,66.117271 98.570152,66.966354 
z"/>
<path fill="#FCA199" opacity="1.000000" stroke="none" 
	d="
M59.327271,23.864542 
	C61.853924,28.670876 64.380577,33.477211 66.582840,38.646080 
	C62.365646,41.333511 58.712963,44.340542 54.521187,45.816196 
	C48.871891,47.804935 42.807415,48.614281 36.921116,49.929771 
	C36.609238,49.172791 36.297356,48.415813 36.312027,47.113716 
	C36.011143,43.708843 35.383705,40.849098 34.756271,37.989349 
	C35.612598,36.776108 36.468922,35.562862 37.973709,34.165665 
	C46.268688,36.650848 50.858871,32.018806 55.384300,27.062902 
	C56.512775,25.827080 58.003204,24.921766 59.327271,23.864542 
z"/>
<path fill="#FB9E9E" opacity="1.000000" stroke="none" 
	d="
M36.846550,49.954506 
	C42.807415,48.614281 48.871891,47.804935 54.521187,45.816196 
	C58.712963,44.340542 62.365646,41.333511 66.626434,39.004257 
	C68.608658,42.079727 70.222900,45.159561 71.833878,48.590508 
	C66.125015,48.186729 62.411526,50.639961 59.958828,55.778202 
	C56.636177,62.738922 62.722416,65.446198 66.240570,70.078140 
	C65.079865,71.020317 63.910652,71.969398 62.396694,72.905533 
	C58.919685,66.387489 55.787422,59.882401 52.327225,52.880310 
	C51.364418,52.597427 50.729546,52.811546 50.094673,53.025665 
	C50.094673,53.025665 50.028389,53.027634 49.731792,52.955784 
	C46.017422,55.251408 42.599651,57.618881 38.806938,59.809246 
	C37.835831,56.444653 37.239666,53.257168 36.643497,50.069683 
	C36.643497,50.069683 36.771980,49.979240 36.846550,49.954506 
z"/>
<path fill="#FDA898" opacity="1.000000" stroke="none" 
	d="
M59.239738,23.504456 
	C58.003204,24.921766 56.512775,25.827080 55.384300,27.062902 
	C50.858871,32.018806 46.268688,36.650848 38.206387,33.949409 
	C42.017750,25.064734 46.244892,16.212357 51.072395,6.102718 
	C54.135487,12.563278 56.643848,17.853823 59.239738,23.504456 
z"/>
<path fill="#FD91A9" opacity="1.000000" stroke="none" 
	d="
M73.421066,91.127853 
	C77.497543,84.375069 78.537048,76.561707 79.795128,68.828781 
	C80.267815,68.960426 80.740494,69.092064 81.213181,69.223709 
	C84.148071,74.241096 87.488930,79.076080 89.857529,84.347893 
	C91.167458,87.263420 90.848892,90.910614 91.128113,94.590179 
	C84.921860,95.221016 78.952530,95.014374 73.421066,91.127853 
z"/>
<path fill="#EBEBEB" opacity="1.000000" stroke="none" 
	d="
M36.415306,50.362419 
	C37.239666,53.257168 37.835831,56.444653 39.106251,59.863335 
	C40.186886,60.728073 40.593266,61.361618 40.999645,61.995163 
	C40.338974,63.724697 39.678303,65.454231 38.677315,67.637428 
	C37.936420,69.792252 37.535847,71.493416 37.278866,73.266815 
	C37.422459,73.339043 37.328644,73.646866 36.960789,73.361267 
	C36.286373,73.036163 35.979816,72.996658 35.336487,72.914467 
	C34.230434,72.094887 33.461143,71.317978 32.562275,70.489456 
	C32.432693,70.437828 32.339382,70.174927 32.547211,69.940407 
	C32.777802,69.499260 32.800560,69.292641 33.074436,68.949074 
	C33.231136,67.960739 33.136715,67.109337 33.035461,65.970398 
	C32.681358,65.798019 32.334084,65.913170 31.986961,66.006531 
	C31.987116,65.984749 32.030613,65.982117 31.765947,66.059036 
	C31.366802,66.461945 31.232325,66.787941 31.007330,67.094978 
	C30.916815,67.076027 30.836193,66.909569 30.620766,66.916702 
	C30.117502,66.932091 29.831682,66.960556 29.367235,66.824905 
	C29.165573,66.470428 29.144554,66.300308 29.342007,65.936600 
	C30.028822,65.152679 30.497164,64.562332 31.348404,63.944351 
	C32.847721,63.630733 33.964146,63.344738 35.341267,62.910797 
	C35.965851,62.511852 36.525898,62.326340 36.637791,61.991207 
	C36.747017,61.664036 36.398533,61.184048 36.229549,60.388432 
	C36.146690,59.497005 36.085270,58.988300 36.023849,58.479591 
	C36.078270,55.871445 36.132690,53.263298 36.415306,50.362419 
z"/>
<path fill="#F2F2F2" opacity="1.000000" stroke="none" 
	d="
M41.131721,62.279518 
	C40.593266,61.361618 40.186886,60.728073 39.481190,60.040443 
	C42.599651,57.618881 46.017422,55.251408 49.728851,52.988811 
	C48.084141,57.811901 46.145779,62.530113 43.718246,68.439011 
	C42.502975,65.530060 41.883385,64.046967 41.131721,62.279518 
z"/>
<path fill="#DADADA" opacity="1.000000" stroke="none" 
	d="
M50.014355,94.004250 
	C47.061970,98.018562 43.080509,95.395363 39.250626,94.969032 
	C38.941856,93.185669 38.924263,92.061180 39.011623,90.917999 
	C39.116577,90.899300 39.316254,90.822647 39.374603,90.855881 
	C39.432953,90.889122 39.477833,91.015709 39.831268,90.989594 
	C40.463413,90.609787 40.742119,90.256088 41.049385,89.601883 
	C42.055161,88.385529 43.032375,87.469688 43.981071,86.191040 
	C43.900631,85.591232 43.848717,85.354233 44.163727,85.090706 
	C45.020523,85.042831 45.510403,85.021500 45.912239,85.277069 
	C45.750877,85.733269 45.677559,85.912567 45.479767,86.341858 
	C45.887173,87.756256 46.419060,88.920670 46.676361,90.211143 
	C46.952240,90.895790 47.502712,91.454369 48.293938,92.166351 
	C49.027912,92.881256 49.521133,93.442749 50.014355,94.004250 
z"/>
<path fill="#DADADA" opacity="1.000000" stroke="none" 
	d="
M17.990841,95.228714 
	C14.512442,95.552513 11.034043,95.876312 7.555644,96.200119 
	C7.167238,95.666855 6.778831,95.133598 6.390426,94.600342 
	C8.058120,92.445351 9.725813,90.290367 11.740752,88.425293 
	C12.706549,88.788437 13.325100,88.861671 14.073449,89.149956 
	C14.313502,89.491043 14.423757,89.617081 14.543473,90.034149 
	C14.701941,90.883408 14.850947,91.441635 15.065457,92.269745 
	C15.431206,92.746361 15.731450,92.953102 16.207109,93.388580 
	C16.933413,93.749596 17.484299,93.881851 17.995274,94.316711 
	C17.967184,94.822441 17.979012,95.025581 17.990841,95.228714 
z"/>
<path fill="#EBEBEB" opacity="1.000000" stroke="none" 
	d="
M25.014315,58.034332 
	C26.761053,54.317219 28.507793,50.600105 30.254532,46.882996 
	C30.508541,47.116505 30.762548,47.350014 31.016558,47.583523 
	C31.016558,51.006496 31.016558,54.429466 30.774666,58.350155 
	C30.353741,58.902946 30.174709,58.958023 29.629812,58.911903 
	C27.847403,58.551922 26.430859,58.293125 25.014315,58.034332 
z"/>
<path fill="#FDA2AA" opacity="1.000000" stroke="none" 
	d="
M77.827385,59.699425 
	C76.685539,60.992931 75.394539,61.982986 73.503120,63.433502 
	C72.202461,61.761158 71.001198,60.216614 69.934082,58.844547 
	C71.228050,57.295704 72.614136,55.636597 74.052177,53.653900 
	C75.295494,55.352200 76.486862,57.374084 77.827385,59.699425 
z"/>
<path fill="#EBEBEB" opacity="1.000000" stroke="none" 
	d="
M16.017952,84.230949 
	C16.221098,83.767723 16.424242,83.304489 16.954056,82.585983 
	C17.280722,82.330696 17.583103,82.182678 17.736526,82.536423 
	C18.756227,82.607475 19.622509,82.324799 20.653885,82.018661 
	C20.818981,81.995216 21.152281,81.983322 21.152281,81.983322 
	C21.152281,81.983322 21.485548,81.996109 21.754524,82.152451 
	C22.585171,81.928955 23.146841,81.549118 24.004332,81.125061 
	C24.498672,81.062157 24.697197,81.043457 25.135963,81.053360 
	C25.376207,81.081978 25.860054,81.076019 25.862644,81.304108 
	C25.865236,81.532204 25.882040,81.988350 25.766813,82.363251 
	C25.975760,83.118851 26.299932,83.499535 26.220276,83.840607 
	C25.550131,83.848442 25.283812,83.895882 24.706066,83.962555 
	C23.921234,84.329811 23.447830,84.677834 22.979101,85.002014 
	C22.983776,84.978165 23.032326,84.980537 22.725506,85.074287 
	C22.101810,85.452896 21.784931,85.737755 21.183186,86.105164 
	C19.976397,86.505547 19.054474,86.823372 18.071871,86.821518 
	C17.346779,85.744873 16.682367,84.987907 16.017952,84.230949 
z"/>
<path fill="#EBEBEB" opacity="1.000000" stroke="none" 
	d="
M34.471195,38.178146 
	C35.383705,40.849098 36.011143,43.708843 36.348553,46.801792 
	C35.535786,45.712116 35.013042,44.389244 34.443272,42.947357 
	C33.872463,43.634682 33.193184,44.452614 32.513905,45.270550 
	C32.201176,45.123589 31.888443,44.976627 31.575712,44.829670 
	C32.445847,42.675426 33.315983,40.521183 34.471195,38.178146 
z"/>
<path fill="#F4F4F4" opacity="1.000000" stroke="none" 
	d="
M37.135273,73.194580 
	C37.535847,71.493416 37.936420,69.792252 38.677147,68.046219 
	C40.158295,68.359337 41.299286,68.717331 43.130688,69.291946 
	C42.128281,70.209114 41.095573,71.154007 39.489220,72.358521 
	C38.915577,72.618141 38.528751,72.308815 38.671654,72.105850 
	C38.652004,71.906746 38.489452,71.910606 38.326904,71.914459 
	C38.420284,72.049377 38.513660,72.184296 38.495499,72.645287 
	C37.967735,73.045769 37.551506,73.120178 37.135273,73.194580 
z"/>
<path fill="#757474" opacity="1.000000" stroke="none" 
	d="
M16.975880,76.024277 
	C17.302048,74.731598 17.628216,73.438911 18.595518,71.970200 
	C19.527876,71.856026 19.819101,71.917885 20.096874,72.303131 
	C20.161171,73.596436 20.238920,74.566345 19.949516,75.719887 
	C19.409298,76.972748 19.236237,78.041977 19.002651,79.307449 
	C18.955439,79.784523 18.978413,80.064552 18.927910,80.496964 
	C18.682100,80.821922 18.489260,80.947311 18.139286,80.990799 
	C18.012323,80.955299 17.752975,80.907799 17.885347,80.538589 
	C17.670439,78.787682 17.323158,77.405975 16.975880,76.024277 
z"/>
<path fill="#F4F4F4" opacity="1.000000" stroke="none" 
	d="
M23.038061,62.759026 
	C23.310226,62.490181 23.582392,62.221336 24.215420,61.625015 
	C24.730133,60.849556 24.883982,60.401566 25.037830,59.953579 
	C25.037830,59.953579 25.029291,60.023163 25.352207,60.040184 
	C26.389425,60.071789 27.103729,60.086365 27.885555,60.489170 
	C27.900774,62.187592 27.848473,63.497784 27.596504,64.876877 
	C27.396839,64.945770 27.020990,65.138626 26.623604,65.104309 
	C25.163498,64.299667 24.100780,63.529346 23.038061,62.759026 
z"/>
<path fill="#EBEBEB" opacity="1.000000" stroke="none" 
	d="
M47.959770,82.014359 
	C49.131149,81.760597 50.302532,81.506836 51.587284,81.868759 
	C51.801086,83.656143 51.901512,84.827827 51.960297,86.260300 
	C51.944271,86.695282 51.969879,86.869469 51.995483,87.043648 
	C51.995483,87.043648 51.983337,86.988533 51.715073,87.099823 
	C51.206627,87.799133 50.966446,88.387161 50.618790,88.970474 
	C50.511307,88.965767 50.296169,88.969223 50.190636,88.596497 
	C50.003666,87.455620 49.922226,86.687469 49.906982,85.583466 
	C49.304104,84.481651 48.635029,83.715698 47.984734,82.951942 
	C48.003521,82.954147 48.017376,82.988602 48.020294,82.744019 
	C48.023209,82.499435 47.959770,82.014359 47.959770,82.014359 
z"/>
<path fill="#373435" opacity="1.000000" stroke="none" 
	d="
M38.528751,72.308815 
	C38.528751,72.308815 38.915577,72.618141 39.132324,72.500610 
	C39.617531,73.228760 39.885990,74.074448 40.123802,75.625725 
	C40.075451,76.578888 40.057743,76.826462 39.983269,77.314926 
	C39.926498,77.555817 40.050655,78.035164 39.825016,78.074272 
	C39.599377,78.113380 39.141441,78.121399 38.957268,78.011833 
	C38.773090,77.902267 38.344841,77.884987 38.222691,77.628807 
	C37.816574,76.897141 37.532612,76.421646 37.443489,75.592178 
	C37.535675,74.710014 37.433014,74.181824 37.305199,73.647736 
	C37.280041,73.641823 37.328644,73.646866 37.328644,73.646866 
	C37.328644,73.646866 37.422459,73.339043 37.278866,73.266815 
	C37.551506,73.120178 37.967735,73.045769 38.479813,72.606522 
	C38.575661,72.241692 38.528751,72.308815 38.528751,72.308815 
z"/>
<path fill="#474545" opacity="1.000000" stroke="none" 
	d="
M38.906670,90.936691 
	C38.924263,92.061180 38.941856,93.185669 38.980721,94.659935 
	C37.948975,95.026199 36.895966,95.042694 35.325726,94.610008 
	C34.627453,93.983757 34.446407,93.806679 34.363384,93.487823 
	C34.461411,93.346054 34.647530,93.056976 34.951096,92.889008 
	C35.346203,92.508820 35.437748,92.296585 35.825920,92.091019 
	C36.341305,91.650810 36.560062,91.203926 37.069984,90.664001 
	C37.561604,90.534294 37.762058,90.497627 38.178658,90.619385 
	C38.565422,90.830765 38.736046,90.883728 38.906670,90.936691 
z"/>
<path fill="#F4F4F4" opacity="1.000000" stroke="none" 
	d="
M15.985567,84.287910 
	C16.682367,84.987907 17.346779,85.744873 18.027218,86.897354 
	C18.043247,87.292862 18.010803,87.467369 17.708885,87.678169 
	C17.094507,88.261787 16.782047,88.634605 16.251287,89.023460 
	C15.533331,89.274040 15.033672,89.508583 14.534013,89.743118 
	C14.423757,89.617081 14.313502,89.491043 14.104603,88.909088 
	C14.005957,88.453163 14.008296,87.966820 14.008296,87.966820 
	C14.008296,87.966820 14.016384,88.012131 14.290001,87.875656 
	C14.706989,87.148224 14.850359,86.557266 14.993729,85.966309 
	C14.993728,85.966309 15.007781,86.004997 15.348682,85.925407 
	C15.790258,85.387260 15.890932,84.928711 15.991606,84.470154 
	C15.991605,84.470154 15.953181,84.344872 15.985567,84.287910 
z"/>
<path fill="#E1E1E1" opacity="1.000000" stroke="none" 
	d="
M19.951103,67.885567 
	C19.946835,67.637344 20.032293,67.425262 20.685066,67.096390 
	C21.443666,66.611412 21.724678,66.279373 22.005692,65.947334 
	C22.005690,65.947334 21.998255,66.004005 22.369205,66.008873 
	C23.800711,66.015198 24.861265,66.016655 25.854301,66.362366 
	C25.682297,67.148758 25.577814,67.590904 25.136856,68.035965 
	C23.723570,68.423546 22.646759,68.808189 21.357384,69.008514 
	C20.746912,68.511314 20.349007,68.198441 19.951103,67.885567 
z"/>
<path fill="#979696" opacity="1.000000" stroke="none" 
	d="
M18.442005,95.262024 
	C17.979012,95.025581 17.967184,94.822441 18.252312,94.193283 
	C19.232668,93.487900 19.916067,93.208527 20.930149,92.934944 
	C21.478779,92.949829 21.696728,92.958923 22.081581,93.322922 
	C23.793564,93.739601 25.338642,93.801376 26.924984,94.140976 
	C26.980886,94.605499 26.995531,94.792175 27.010174,94.978859 
	C24.304504,95.084351 21.598837,95.189842 18.442005,95.262024 
z"/>
<path fill="#E1E1E1" opacity="1.000000" stroke="none" 
	d="
M50.296165,88.969223 
	C50.296169,88.969223 50.511307,88.965767 50.757793,89.188820 
	C51.304043,89.558655 51.603802,89.705444 51.903564,89.852226 
	C51.455257,91.104652 51.006950,92.357079 50.286499,93.806877 
	C49.521133,93.442749 49.027912,92.881256 48.241180,91.966934 
	C47.947674,91.614105 47.902977,91.204506 48.111679,91.038208 
	C48.469658,90.775131 48.618935,90.678345 49.022079,90.630157 
	C49.616020,90.108902 49.956093,89.539062 50.296165,88.969223 
z"/>
<path fill="#F5F5F5" opacity="1.000000" stroke="none" 
	d="
M17.000702,76.017319 
	C17.323158,77.405975 17.670439,78.787682 17.553583,80.517265 
	C16.389832,80.396866 15.690214,79.928589 14.990599,79.460304 
	C14.990599,79.460304 15.015933,79.508057 15.297225,79.384659 
	C16.023689,78.504303 16.468859,77.747345 17.002659,76.738831 
	C17.066156,76.311264 17.041025,76.135239 17.015894,75.959213 
	C17.015894,75.959213 17.025524,76.010368 17.000702,76.017319 
z"/>
<path fill="#868485" opacity="1.000000" stroke="none" 
	d="
M19.860470,68.213104 
	C20.349007,68.198441 20.746912,68.511314 21.516811,69.271507 
	C21.295979,70.472466 20.703154,71.226097 20.110327,71.979736 
	C19.819101,71.917885 19.527876,71.856026 18.799931,71.698219 
	C18.832087,70.581726 19.300962,69.561188 19.860470,68.213104 
z"/>
<path fill="#514E4F" opacity="1.000000" stroke="none" 
	d="
M40.040035,77.074036 
	C40.057743,76.826462 40.075451,76.578888 40.151726,75.963577 
	C41.550369,76.208969 42.890442,76.822083 44.392380,77.879730 
	C44.554245,78.324265 44.465557,78.719009 44.073662,78.771400 
	C43.432770,78.910294 43.183777,78.996796 42.682106,78.936195 
	C41.920654,78.692749 41.411888,78.596413 41.014782,78.391830 
	C41.126446,78.283592 41.000793,77.999077 40.937313,77.759689 
	C40.687767,77.199921 40.409832,77.051163 40.040035,77.074036 
z"/>
<path fill="#8E8D8E" opacity="1.000000" stroke="none" 
	d="
M29.995680,59.013096 
	C30.174709,58.958023 30.353741,58.902946 30.786083,58.725910 
	C32.433228,58.644592 33.827057,58.685242 35.622368,58.602737 
	C36.085270,58.988300 36.146690,59.497005 35.861320,60.406639 
	C35.269329,60.822231 35.024136,60.836906 34.595196,60.538689 
	C32.937252,60.138847 31.463053,60.051903 30.004673,59.727097 
	C30.020493,59.489231 29.995680,59.013096 29.995680,59.013096 
z"/>
<path fill="#9D9C9C" opacity="1.000000" stroke="none" 
	d="
M34.265358,93.629593 
	C34.446407,93.806679 34.627453,93.983757 34.940620,94.516953 
	C33.012585,94.961037 30.952425,95.048981 28.481445,94.789742 
	C28.091246,94.248543 28.111866,94.054527 28.525482,93.917290 
	C30.700769,93.859245 32.483063,93.744423 34.265358,93.629593 
z"/>
<path fill="#868485" opacity="1.000000" stroke="none" 
	d="
M25.921822,66.018105 
	C24.861265,66.016655 23.800711,66.015198 22.341871,66.000519 
	C22.109398,65.064964 22.275208,64.142624 22.739538,62.989655 
	C24.100780,63.529346 25.163498,64.299667 26.490353,65.307083 
	C26.528330,65.792450 26.250774,65.950424 25.921822,66.018105 
z"/>
<path fill="#868485" opacity="1.000000" stroke="none" 
	d="
M52.001938,85.999519 
	C51.901512,84.827827 51.801086,83.656143 51.837055,82.050468 
	C52.381557,82.856255 52.789661,84.096024 52.836296,85.672684 
	C52.474827,86.009583 52.001938,85.999519 52.001938,85.999519 
z"/>
<path fill="#757474" opacity="1.000000" stroke="none" 
	d="
M29.629812,58.911903 
	C29.995680,59.013096 30.020493,59.489231 29.853313,59.822777 
	C29.686136,60.156326 29.343729,60.261265 28.962368,60.220596 
	C28.326679,60.153599 28.072355,60.127270 27.818033,60.100941 
	C27.103729,60.086365 26.389425,60.071789 25.317184,60.041695 
	C24.854940,59.746265 24.718927,59.472782 24.660271,59.183609 
	C24.632732,59.047840 24.754179,58.881855 24.911211,58.381943 
	C26.430859,58.293125 27.847403,58.551922 29.629812,58.911903 
z"/>
<path fill="#9D9C9C" opacity="1.000000" stroke="none" 
	d="
M42.934784,79.083298 
	C43.183777,78.996796 43.432770,78.910294 43.989395,78.629883 
	C44.315578,78.169701 44.456173,78.011894 44.718807,77.962540 
	C45.439232,78.406631 46.159653,78.850716 46.663231,79.675323 
	C46.284531,80.139977 46.122673,80.224113 45.598511,80.345657 
	C44.469063,79.949814 43.701923,79.516556 42.934784,79.083298 
z"/>
<path fill="#979696" opacity="1.000000" stroke="none" 
	d="
M14.632479,79.654808 
	C15.690214,79.928589 16.389832,80.396866 17.421211,80.886475 
	C17.752975,80.907799 18.012323,80.955299 17.945389,81.266479 
	C17.780005,81.779335 17.681555,81.981010 17.583103,82.182678 
	C17.583103,82.182678 17.280722,82.330696 17.123131,82.390259 
	C16.068480,81.582985 15.171419,80.716148 14.632479,79.654808 
z"/>
<path fill="#F2F2F2" opacity="1.000000" stroke="none" 
	d="
M50.436073,53.019806 
	C50.729546,52.811546 51.364418,52.597427 52.071735,52.652496 
	C51.688610,52.952438 51.233044,52.983196 50.436073,53.019806 
z"/>
<path fill="#979696" opacity="1.000000" stroke="none" 
	d="
M51.938637,89.493904 
	C51.603802,89.705444 51.304043,89.558655 50.865273,89.193527 
	C50.966446,88.387161 51.206627,87.799133 51.742573,87.093521 
	C52.016796,87.695808 51.995251,88.415695 51.938637,89.493904 
z"/>
<path fill="#A7A6A7" opacity="1.000000" stroke="none" 
	d="
M13.701429,87.848251 
	C14.008296,87.966820 14.005957,88.453163 13.974804,88.694031 
	C13.325100,88.861671 12.706549,88.788437 12.124229,88.443207 
	C12.571829,88.024040 12.983195,87.876869 13.701429,87.848251 
z"/>
<path fill="#696768" opacity="1.000000" stroke="none" 
	d="
M28.132488,93.860512 
	C28.111866,94.054527 28.091246,94.248543 28.042858,94.734039 
	C27.845873,95.054832 27.676661,95.084145 27.258810,95.046158 
	C26.995531,94.792175 26.980886,94.605499 26.968052,93.865341 
	C27.087139,93.041817 27.204418,92.771782 27.321697,92.501740 
	C27.591961,92.954666 27.862225,93.407585 28.132488,93.860512 
z"/>
<path fill="#979696" opacity="1.000000" stroke="none" 
	d="
M16.914028,76.990387 
	C16.468859,77.747345 16.023689,78.504303 15.272903,79.396454 
	C15.095634,78.836754 15.223978,78.141876 15.874059,77.217216 
	C16.568541,76.988426 16.741285,76.989403 16.914028,76.990387 
z"/>
<path fill="#9D9C9C" opacity="1.000000" stroke="none" 
	d="
M47.768349,81.878647 
	C47.959770,82.014359 48.023209,82.499435 47.632496,82.686783 
	C46.809525,82.006859 46.377262,81.139603 46.163193,80.520271 
	C46.586391,80.848518 46.791401,80.928841 46.996410,81.009155 
	C47.149086,81.286049 47.342590,81.530640 47.768349,81.878647 
z"/>
<path fill="#757474" opacity="1.000000" stroke="none" 
	d="
M24.732182,59.954773 
	C24.883982,60.401566 24.730133,60.849556 24.484076,61.514709 
	C24.403421,61.139908 24.414978,60.547935 24.732182,59.954773 
z"/>
<path fill="#A7A6A7" opacity="1.000000" stroke="none" 
	d="
M14.671249,86.072678 
	C14.850359,86.557266 14.706989,87.148224 14.267571,87.880791 
	C14.097273,87.407951 14.223022,86.793495 14.671249,86.072678 
z"/>
<path fill="#8E8D8E" opacity="1.000000" stroke="none" 
	d="
M17.002659,76.738831 
	C16.741285,76.989403 16.568541,76.988426 16.136541,76.973984 
	C16.052038,76.601158 16.226789,76.241783 16.708717,75.920815 
	C17.041025,76.135239 17.066156,76.311264 17.002659,76.738831 
z"/>
<path fill="#A7A6A7" opacity="1.000000" stroke="none" 
	d="
M15.738600,84.668839 
	C15.890932,84.928711 15.790258,85.387260 15.328190,85.927338 
	C15.139728,85.628410 15.312660,85.247963 15.738600,84.668839 
z"/>
<path fill="#979696" opacity="1.000000" stroke="none" 
	d="
M51.960297,86.260300 
	C52.001938,85.999519 52.474827,86.009583 52.710793,85.999298 
	C52.809006,86.308945 52.671257,86.628876 52.264496,86.996223 
	C51.969879,86.869469 51.944271,86.695282 51.960297,86.260300 
z"/>
<path fill="#868485" opacity="1.000000" stroke="none" 
	d="
M21.656765,65.922386 
	C21.724678,66.279373 21.443666,66.611412 20.819582,66.983826 
	C20.753620,66.648613 21.030729,66.273026 21.656765,65.922386 
z"/>
<path fill="#EBEBEB" opacity="1.000000" stroke="none" 
	d="
M47.001534,80.751144 
	C46.791401,80.928841 46.586391,80.848518 46.171432,80.535355 
	C45.961483,80.302505 45.960815,80.308243 45.960815,80.308243 
	C46.122673,80.224113 46.284531,80.139977 46.717064,80.016602 
	C46.994045,80.149284 47.000355,80.321205 47.001534,80.751144 
z"/>
<path fill="#F2F2F2" opacity="1.000000" stroke="none" 
	d="
M44.712315,77.977859 
	C44.456173,78.011894 44.315578,78.169701 44.381290,78.577492 
	C44.465557,78.719009 44.554245,78.324265 44.651466,78.146576 
	C44.748684,77.968880 44.705822,77.993187 44.712315,77.977859 
z"/>
<path fill="#243630" opacity="1.000000" stroke="none" 
	d="
M96.804810,65.980576 
	C94.960701,68.102959 93.286240,70.409218 91.232315,72.304184 
	C88.231133,75.073082 86.217331,74.262024 85.532326,70.186218 
	C85.189613,68.147034 85.056793,66.072578 84.825005,63.977612 
	C78.179901,65.355682 75.637634,68.371819 76.004875,74.003418 
	C76.582932,82.868057 70.879807,90.248871 61.906898,91.700478 
	C56.463463,81.492104 65.942436,76.800034 70.354942,69.054802 
	C68.539459,67.471725 66.322350,65.535133 64.101524,63.602802 
	C61.635754,61.457340 61.199249,59.111835 62.981339,56.219273 
	C64.818924,53.236626 66.818817,51.018593 70.664886,52.351646 
	C69.160217,55.003166 66.239265,57.850769 66.742393,59.826340 
	C67.422943,62.498577 70.732193,64.501343 73.514336,67.421898 
	C78.667900,61.364693 87.297928,60.425560 91.192085,52.869602 
	C92.577385,50.181641 95.023682,47.784737 97.512962,45.983860 
	C100.904106,43.530529 103.203461,44.742962 104.838364,49.488251 
	C92.466019,49.286491 93.146622,60.317513 88.657623,67.019600 
	C89.138084,67.429428 89.618546,67.839249 90.099007,68.249077 
	C92.466576,65.507866 94.702568,62.636307 97.245796,60.069107 
	C99.085510,58.212051 101.333099,56.759048 103.398788,55.125858 
	C103.542450,57.740143 104.139893,60.424191 103.750595,62.956543 
	C102.134346,73.469948 100.087593,83.917465 98.493660,94.433838 
	C97.993034,97.736862 98.415573,101.179802 98.415573,104.558693 
	C99.022850,104.686356 99.630127,104.814018 100.237404,104.941673 
	C101.469322,102.339325 102.814384,99.783821 103.914307,97.126831 
	C109.880585,82.714516 115.728752,68.252876 121.787376,53.879799 
	C122.526382,52.126637 124.283798,50.802761 125.569244,49.279934 
	C126.020111,49.583557 126.470985,49.887180 126.921860,50.190804 
	C125.487190,55.084057 124.052528,59.977310 122.617867,64.870560 
	C128.351471,61.862862 129.242218,54.917892 135.744217,52.321728 
	C135.994186,56.162712 135.910904,59.010715 136.418533,61.749176 
	C137.252502,66.248093 139.568832,67.223274 142.953690,64.267586 
	C145.908493,61.687416 148.306900,58.463726 150.905762,55.484768 
	C152.318497,53.865414 153.388870,51.840500 155.049515,50.566769 
	C158.421585,47.980347 161.502777,48.319004 163.773529,52.725445 
	C162.569321,53.321011 161.451813,53.873699 160.107758,54.538422 
	C160.337891,55.662029 160.681046,56.881386 160.823425,58.123756 
	C161.164062,61.095867 160.985306,64.461952 165.056824,64.958817 
	C167.924377,65.308754 172.179733,61.053719 172.823471,57.594383 
	C173.207687,55.529686 173.675858,53.480618 174.106277,51.424522 
	C174.716522,51.494213 175.326782,51.563904 175.937042,51.633598 
	C176.054245,54.124561 176.171463,56.615528 176.291809,59.106678 
	C176.399277,59.159096 176.516327,59.273209 176.606094,59.254730 
	C182.573380,58.026371 188.434525,56.833904 191.931427,50.786240 
	C192.487930,49.823799 195.683517,50.387348 197.658997,50.245399 
	C197.278549,52.083427 197.458435,54.398540 196.391281,55.651886 
	C194.623581,57.728035 192.052963,59.120567 189.709747,60.884586 
	C190.334503,65.415192 191.929794,66.767685 196.012833,64.963425 
	C199.126312,63.587612 201.776459,61.174927 204.666809,59.275383 
	C205.531631,58.707031 206.511246,58.313377 207.751572,58.419777 
	C203.549637,63.133442 199.491837,68.699333 192.512619,67.843239 
	C189.738647,67.502983 187.363831,63.908524 185.212372,61.229160 
	C175.019547,57.738453 177.275421,67.891754 174.326782,72.775276 
	C173.925369,72.665558 173.523956,72.555840 173.122543,72.446114 
	C172.880341,70.003120 172.638138,67.560127 172.389648,65.053787 
	C163.068176,69.312706 161.614014,68.901070 157.488144,60.550377 
	C156.393875,62.465469 155.662811,64.257080 154.477890,65.667351 
	C153.401703,66.948204 151.818558,68.631882 150.483459,68.610405 
	C149.367661,68.592461 148.287384,66.365044 147.108948,65.022133 
	C137.434372,71.020660 136.358856,70.617493 132.803040,59.148609 
	C128.191010,61.578972 128.501572,71.676414 118.559959,67.859253 
	C114.878487,77.148933 110.986160,87.089417 106.988586,96.987389 
	C105.748993,100.056602 104.570786,103.244255 102.742348,105.958611 
	C100.385666,109.457169 96.857231,108.963539 95.806023,104.915527 
	C94.862160,101.280876 94.389603,97.302597 94.777481,93.587433 
	C95.707565,84.678856 97.265564,75.835831 98.745605,66.287918 
	C98.694656,65.147194 98.468254,64.684914 98.241859,64.222633 
	C97.762848,64.808617 97.283829,65.394592 96.804810,65.980576 
M71.837608,78.209045 
	C71.837608,76.700287 71.837608,75.191536 71.837608,72.589508 
	C67.421936,77.820480 62.929432,81.649254 63.626980,88.819153 
	C69.003479,87.043282 70.139030,82.850060 71.837608,78.209045 
z"/>
<path fill="#F3F3EE" opacity="1.000000" stroke="none" 
	d="
M97.269859,66.019699 
	C97.283829,65.394592 97.762848,64.808617 98.241859,64.222633 
	C98.468254,64.684914 98.694656,65.147194 98.792618,65.877975 
	C98.354416,66.117271 98.044662,66.088051 97.269859,66.019699 
z"/>
<path fill="#E3E3E3" opacity="1.000000" stroke="none" 
	d="
M20.096874,72.303131 
	C20.703154,71.226097 21.295979,70.472466 21.729378,69.455833 
	C22.646759,68.808189 23.723570,68.423546 25.438927,68.149216 
	C27.234276,67.842773 28.391077,67.426010 29.547878,67.009247 
	C29.831682,66.960556 30.117502,66.932091 30.326653,67.146111 
	C29.716173,68.193275 29.184380,69.018166 28.466467,69.936295 
	C28.021610,70.366074 27.762873,70.702637 27.437244,71.201317 
	C27.097345,71.577370 26.824339,71.791298 26.301357,71.824066 
	C25.459484,72.106834 24.867588,72.570755 24.152849,73.147949 
	C23.930393,73.467644 23.882170,73.685455 23.658197,74.149826 
	C22.767195,74.919724 22.103329,75.454468 21.145027,75.910019 
	C20.672619,75.732635 20.494644,75.634445 20.316671,75.536247 
	C20.238920,74.566345 20.161171,73.596436 20.096874,72.303131 
z"/>
<path fill="#F4F4F4" opacity="1.000000" stroke="none" 
	d="
M37.330353,73.653641 
	C37.433014,74.181824 37.535675,74.710014 37.170937,75.643539 
	C36.144852,76.514381 35.586166,76.979866 34.702080,77.600990 
	C33.907181,77.653664 33.437691,77.550705 32.981125,77.473068 
	C32.994045,77.498390 33.022152,77.547821 33.066505,77.147461 
	C32.733166,75.814461 32.355465,74.881813 31.986668,73.973648 
	C31.995569,73.998138 32.030300,74.036987 32.031303,73.628220 
	C31.898294,72.420898 31.764284,71.622353 31.885124,70.713531 
	C32.323936,70.582542 32.507896,70.561813 32.691856,70.541077 
	C33.461143,71.317978 34.230434,72.094887 35.534683,73.193649 
	C36.489883,73.561546 36.910118,73.607597 37.330353,73.653641 
z"/>
<path fill="#8E8D8E" opacity="1.000000" stroke="none" 
	d="
M27.885555,60.489170 
	C28.072355,60.127270 28.326679,60.153599 28.870829,60.582069 
	C29.789368,62.001022 30.418083,63.017838 31.015993,64.032585 
	C30.985186,64.030518 30.965508,63.971981 30.965508,63.971981 
	C30.497164,64.562332 30.028822,65.152679 29.199816,65.644485 
	C28.491489,65.299950 28.143829,65.053963 27.796169,64.807976 
	C27.848473,63.497784 27.900774,62.187592 27.885555,60.489170 
z"/>
<path fill="#514E4F" opacity="1.000000" stroke="none" 
	d="
M32.562275,70.489456 
	C32.507896,70.561813 32.323936,70.582542 31.609854,70.762497 
	C30.711071,70.957588 30.342411,70.993454 29.727226,70.639465 
	C29.204662,70.114090 28.928623,69.978577 28.652586,69.843063 
	C29.184380,69.018166 29.716173,68.193275 30.542080,67.138977 
	C30.836193,66.909569 30.916815,67.076027 31.129961,67.183525 
	C31.343107,67.291023 31.633774,67.205444 31.638147,67.519249 
	C31.756565,68.228180 31.870611,68.623314 31.990837,69.228348 
	C31.991228,69.739571 32.105350,69.985130 32.339382,70.174927 
	C32.339382,70.174927 32.432693,70.437828 32.562275,70.489456 
z"/>
<path fill="#646263" opacity="1.000000" stroke="none" 
	d="
M27.596504,64.876877 
	C28.143829,65.053963 28.491489,65.299950 28.981342,65.838058 
	C29.144554,66.300308 29.165573,66.470428 29.367233,66.824905 
	C28.391077,67.426010 27.234276,67.842773 25.775402,68.146294 
	C25.577814,67.590904 25.682297,67.148758 25.854301,66.362366 
	C26.250774,65.950424 26.528330,65.792450 26.887741,65.341400 
	C27.020990,65.138626 27.396839,64.945770 27.596504,64.876877 
z"/>
<path fill="#646263" opacity="1.000000" stroke="none" 
	d="
M34.778938,60.851585 
	C35.024136,60.836906 35.269329,60.822231 35.882755,60.789352 
	C36.398533,61.184048 36.747017,61.664036 36.637791,61.991207 
	C36.525898,62.326340 35.965851,62.511852 35.091728,62.750492 
	C34.348171,62.420876 34.114841,62.103626 33.947098,61.565521 
	C34.217228,61.101254 34.472645,60.936893 34.778938,60.851585 
z"/>
<path fill="#7B7A7A" opacity="1.000000" stroke="none" 
	d="
M33.881516,61.786373 
	C34.114841,62.103626 34.348171,62.420876 34.831032,62.898438 
	C33.964146,63.344738 32.847721,63.630733 31.348404,63.944351 
	C30.965508,63.971981 30.985186,64.030518 31.061413,63.712936 
	C32.052265,62.859028 32.966892,62.322701 33.881516,61.786373 
z"/>
<path fill="#F4F4F4" opacity="1.000000" stroke="none" 
	d="
M31.984653,69.018440 
	C31.870611,68.623314 31.756565,68.228180 31.834150,67.244705 
	C32.027390,66.431610 32.028999,66.206863 32.030613,65.982117 
	C32.030613,65.982117 31.987116,65.984749 32.236412,66.130341 
	C32.671234,66.269936 32.856762,66.263939 33.042294,66.257942 
	C33.136715,67.109337 33.231136,67.960739 32.866379,68.914398 
	C32.407207,69.016663 31.984653,69.018440 31.984653,69.018440 
z"/>
<path fill="#A1A0A0" opacity="1.000000" stroke="none" 
	d="
M33.035461,65.970398 
	C32.856762,66.263939 32.671234,66.269936 32.236259,66.152130 
	C32.334084,65.913170 32.681358,65.798019 33.035461,65.970398 
z"/>
<path fill="#A1A0A0" opacity="1.000000" stroke="none" 
	d="
M37.305199,73.647736 
	C36.910118,73.607597 36.489883,73.561546 35.871452,73.236328 
	C35.979816,72.996658 36.286373,73.036163 36.960789,73.361267 
	C37.328644,73.646866 37.280041,73.641823 37.305199,73.647736 
z"/>
<path fill="#9D9C9C" opacity="1.000000" stroke="none" 
	d="
M31.765947,66.059036 
	C32.028999,66.206863 32.027390,66.431610 31.829777,66.930893 
	C31.633774,67.205444 31.343107,67.291023 31.220476,67.202477 
	C31.232325,66.787941 31.366802,66.461945 31.765947,66.059036 
z"/>
<path fill="#9D9C9C" opacity="1.000000" stroke="none" 
	d="
M31.990835,69.228348 
	C31.984653,69.018440 32.407207,69.016663 32.615265,69.051338 
	C32.800560,69.292641 32.777802,69.499260 32.547211,69.940407 
	C32.105350,69.985130 31.991228,69.739571 31.990835,69.228348 
z"/>
<path fill="#F2F2F2" opacity="1.000000" stroke="none" 
	d="
M45.598511,80.345657 
	C45.960815,80.308243 45.961483,80.302505 45.953239,80.287422 
	C46.377262,81.139603 46.809525,82.006859 47.629578,82.931366 
	C48.017376,82.988602 48.003521,82.954147 47.933464,83.307968 
	C47.724796,84.117836 47.586182,84.573875 47.462646,85.010345 
	C47.477730,84.990776 47.527103,84.992729 47.145275,84.969070 
	C46.509060,84.963654 46.254673,84.981903 46.000282,85.000160 
	C45.510403,85.021500 45.020523,85.042831 43.999344,85.035606 
	C43.468044,85.007042 43.165913,84.836731 43.127121,84.543892 
	C42.762421,83.803505 42.436512,83.355965 42.142349,82.577965 
	C42.128513,81.803864 42.082935,81.360207 41.939835,80.665611 
	C41.529251,79.776466 41.216183,79.138275 40.903118,78.500076 
	C41.411888,78.596413 41.920654,78.692749 42.682106,78.936195 
	C43.701923,79.516556 44.469063,79.949814 45.598511,80.345657 
z"/>
<path fill="#EFEFEF" opacity="1.000000" stroke="none" 
	d="
M39.477833,91.015709 
	C39.477833,91.015709 39.432953,90.889122 39.294376,90.674744 
	C39.155800,90.460358 39.049953,90.080009 39.024185,89.796967 
	C38.955593,89.329552 38.912777,89.145195 38.917175,88.560303 
	C38.927559,87.085129 38.890732,86.010483 38.876961,84.962494 
	C38.900021,84.989159 38.950027,84.939468 39.282211,84.886612 
	C40.412510,85.219597 41.210621,85.605438 42.322426,86.232666 
	C43.093945,86.500641 43.551765,86.527245 44.009590,86.553848 
	C43.032375,87.469688 42.055161,88.385529 40.740906,89.702286 
	C40.095188,90.407379 39.786510,90.711540 39.477833,91.015709 
z"/>
<path fill="#F6F6F6" opacity="1.000000" stroke="none" 
	d="
M47.527107,84.992737 
	C47.527103,84.992729 47.477730,84.990776 47.778847,85.089905 
	C48.406902,85.448181 48.733833,85.707336 49.000992,86.304932 
	C48.883549,87.956108 48.825878,89.268837 48.768211,90.581566 
	C48.618935,90.678345 48.469658,90.775131 47.892632,90.910034 
	C47.293571,90.660469 47.122261,90.372772 46.950951,90.085075 
	C46.419060,88.920670 45.887173,87.756256 45.878681,86.294373 
	C46.777088,85.662170 47.152096,85.327454 47.527107,84.992737 
z"/>
<path fill="#A1A0A0" opacity="1.000000" stroke="none" 
	d="
M46.676357,90.211143 
	C47.122261,90.372772 47.293571,90.660469 47.683929,91.076340 
	C47.902977,91.204506 47.947674,91.614105 48.000427,91.813522 
	C47.502712,91.454369 46.952240,90.895790 46.676357,90.211143 
z"/>
<path fill="#696768" opacity="1.000000" stroke="none" 
	d="
M43.981068,86.191040 
	C43.551765,86.527245 43.093945,86.500641 42.411346,85.953751 
	C42.513020,85.234558 42.839466,85.035645 43.165909,84.836731 
	C43.165913,84.836731 43.468044,85.007042 43.632423,85.062141 
	C43.848717,85.354233 43.900631,85.591232 43.981068,86.191040 
z"/>
<path fill="#D4D3D3" opacity="1.000000" stroke="none" 
	d="
M39.049953,90.080009 
	C39.049953,90.080009 39.155800,90.460358 39.236027,90.641502 
	C39.316254,90.822647 39.116577,90.899300 39.011623,90.917999 
	C38.736046,90.883728 38.565422,90.830765 38.170212,90.645271 
	C37.945625,90.512741 37.943359,90.498734 38.236439,90.437378 
	C38.702999,90.277359 38.876476,90.178680 39.049953,90.080009 
z"/>
<path fill="#979696" opacity="1.000000" stroke="none" 
	d="
M39.831268,90.989594 
	C39.786510,90.711540 40.095188,90.407379 40.712341,90.002808 
	C40.742119,90.256088 40.463413,90.609787 39.831268,90.989594 
z"/>
<path fill="#ABABAB" opacity="1.000000" stroke="none" 
	d="
M47.145279,84.969070 
	C47.152096,85.327454 46.777088,85.662170 46.003159,86.044380 
	C45.677559,85.912567 45.750877,85.733269 45.912239,85.277069 
	C46.254673,84.981903 46.509060,84.963654 47.145279,84.969070 
z"/>
<path fill="#EFEFEF" opacity="1.000000" stroke="none" 
	d="
M14.543474,90.034149 
	C15.033672,89.508583 15.533331,89.274040 16.732756,89.092506 
	C17.754839,89.110115 18.077154,89.074715 18.734613,89.023499 
	C19.740721,88.997437 20.411684,88.987198 21.480354,89.014915 
	C22.404133,89.023079 22.930208,88.993279 23.478807,88.970604 
	C23.501331,88.977730 23.460876,88.947205 23.398060,89.241257 
	C22.650934,90.218185 21.966627,90.901062 20.956104,91.355728 
	C19.742424,91.421219 18.854963,91.714912 17.988605,92.013718 
	C18.009708,92.018829 18.024158,91.977875 17.654722,91.872864 
	C16.523508,91.845192 15.761732,91.922531 14.999954,91.999870 
	C14.850947,91.441635 14.701941,90.883408 14.543474,90.034149 
z"/>
<path fill="#E9EAE5" opacity="1.000000" stroke="none" 
	d="
M20.599468,92.929161 
	C19.916067,93.208527 19.232668,93.487900 18.292227,93.890686 
	C17.484299,93.881851 16.933413,93.749596 16.502838,93.317024 
	C17.090157,92.670441 17.557158,92.324158 18.024158,91.977875 
	C18.024158,91.977875 18.009708,92.018829 18.414055,92.032944 
	C19.640749,91.880562 20.463095,91.714073 21.563065,91.451981 
	C22.025257,91.421577 22.209827,91.486794 21.881495,91.812653 
	C21.112217,92.358597 20.855843,92.643875 20.599468,92.929161 
z"/>
<path fill="#A1A0A0" opacity="1.000000" stroke="none" 
	d="
M17.654724,91.872864 
	C17.557158,92.324158 17.090157,92.670441 16.327423,93.088272 
	C15.731450,92.953102 15.431206,92.746361 15.065458,92.269745 
	C15.761732,91.922531 16.523508,91.845192 17.654724,91.872864 
z"/>
<path fill="#F5F5F5" opacity="1.000000" stroke="none" 
	d="
M21.082649,88.976959 
	C20.411684,88.987198 19.740721,88.997437 18.722244,88.609528 
	C18.253424,87.963379 18.132113,87.715378 18.010803,87.467369 
	C18.010803,87.467369 18.043247,87.292862 18.087898,87.217026 
	C19.054474,86.823372 19.976397,86.505547 21.541733,86.084763 
	C22.467541,85.648048 22.749933,85.314293 23.032326,84.980537 
	C23.032326,84.980537 22.983776,84.978165 23.322317,85.079529 
	C24.094158,85.010048 24.527460,84.839195 25.297596,84.684174 
	C26.058361,84.843033 26.482286,84.986069 27.020569,85.389145 
	C27.459209,85.127922 27.783493,84.606659 28.329124,83.920486 
	C28.537836,83.405548 28.525200,83.055527 28.730606,82.508850 
	C29.318081,81.863167 29.687513,81.414154 30.035156,80.974686 
	C30.013367,80.984230 29.988272,81.024605 30.306213,81.032150 
	C31.086800,80.666389 31.549444,80.293083 32.320572,80.013702 
	C33.045444,80.584381 33.461834,81.061150 33.889561,81.517265 
	C33.900902,81.496620 33.857208,81.483612 33.862762,81.871849 
	C34.322025,83.139290 34.775726,84.018494 35.136646,85.260963 
	C35.063164,86.367622 35.082462,87.111008 34.984203,88.090744 
	C34.591022,88.534935 34.315399,88.742798 33.966858,88.805077 
	C33.787678,88.616501 33.681419,88.573509 33.575157,88.530510 
	C33.695183,88.704910 33.815208,88.879311 33.925438,89.192078 
	C33.915646,89.330437 33.926651,89.607643 33.854378,89.940735 
	C33.825535,90.496857 33.868969,90.719894 33.940086,90.963135 
	C33.967766,90.983345 33.921764,90.948029 33.727123,91.167427 
	C33.196732,91.586601 32.860981,91.786377 32.513824,91.982895 
	C32.502419,91.979645 32.478725,91.980850 32.265221,91.727280 
	C31.054892,91.042564 30.058071,90.611420 28.928925,89.924255 
	C28.286661,89.440407 27.776724,89.212578 27.087481,88.796188 
	C26.826746,88.454475 26.745316,88.301323 26.736042,87.925095 
	C26.658972,87.851936 26.509745,88.001854 26.188370,88.379166 
	C25.671316,88.760864 25.326406,88.915184 24.606091,88.979874 
	C23.974083,88.909233 23.717480,88.928215 23.460876,88.947205 
	C23.460876,88.947205 23.501331,88.977730 23.358780,88.638138 
	C22.505035,88.524673 21.793842,88.750816 21.082649,88.976959 
z"/>
<path fill="#EFEFEF" opacity="1.000000" stroke="none" 
	d="
M19.949516,75.719887 
	C20.494644,75.634445 20.672619,75.732635 21.361046,76.282570 
	C22.757185,77.167633 23.642870,77.600967 24.551010,78.042572 
	C24.573462,78.050842 24.630989,78.072731 24.592325,78.569351 
	C24.667681,79.718895 24.781700,80.371819 24.895720,81.024750 
	C24.697197,81.043457 24.498672,81.062157 23.704561,81.150330 
	C22.567831,81.478577 22.026690,81.737343 21.485548,81.996109 
	C21.485548,81.996109 21.152281,81.983322 21.152281,81.983322 
	C21.152281,81.983322 20.818981,81.995216 20.692001,81.625862 
	C20.413263,80.753632 20.261501,80.250763 19.896645,79.508919 
	C19.476757,79.217033 19.269966,79.164116 19.063175,79.111198 
	C19.236237,78.041977 19.409298,76.972748 19.949516,75.719887 
z"/>
<path fill="#575555" opacity="1.000000" stroke="none" 
	d="
M28.512566,82.705513 
	C28.525200,83.055527 28.537836,83.405548 28.066299,83.888718 
	C27.409111,83.987099 27.236092,83.952309 26.957407,83.860229 
	C26.851740,83.802940 26.624105,83.880226 26.624105,83.880226 
	C26.299932,83.499535 25.975760,83.118851 25.997654,82.283752 
	C26.647030,81.677917 26.870829,81.448822 27.260387,81.118484 
	C27.505661,81.094917 27.984308,80.977654 28.081757,81.420197 
	C28.290327,82.143661 28.401445,82.424583 28.512566,82.705513 
z"/>
<path fill="#ABABAB" opacity="1.000000" stroke="none" 
	d="
M21.754524,82.152451 
	C22.026690,81.737343 22.567831,81.478577 23.408743,81.194550 
	C23.146841,81.549118 22.585171,81.928955 21.754524,82.152451 
z"/>
<path fill="#474545" opacity="1.000000" stroke="none" 
	d="
M20.109741,79.747887 
	C20.261501,80.250763 20.413263,80.753632 20.526905,81.649307 
	C19.622509,82.324799 18.756227,82.607475 17.736526,82.536423 
	C17.681555,81.981010 17.780005,81.779335 18.072353,81.301979 
	C18.489260,80.947311 18.682100,80.821922 19.228809,80.396133 
	C19.778479,80.010712 19.944109,79.879295 20.109741,79.747887 
z"/>
<path fill="#A1A0A0" opacity="1.000000" stroke="none" 
	d="
M25.135963,81.053360 
	C24.781700,80.371819 24.667681,79.718895 24.848650,78.858582 
	C25.465357,79.282745 25.787075,79.914284 26.105997,80.706238 
	C26.103199,80.866646 25.860054,81.076019 25.860054,81.076019 
	C25.860054,81.076019 25.376207,81.081978 25.135963,81.053360 
z"/>
<path fill="#ABABAB" opacity="1.000000" stroke="none" 
	d="
M26.220276,83.840607 
	C26.624105,83.880226 26.851740,83.802940 26.942055,84.166351 
	C26.990318,84.729553 26.948265,84.929337 26.906212,85.129112 
	C26.482286,84.986069 26.058361,84.843033 25.306465,84.503021 
	C24.978498,84.306038 25.017492,83.943329 25.017492,83.943329 
	C25.283812,83.895882 25.550131,83.848442 26.220276,83.840607 
z"/>
<path fill="#A1A0A0" opacity="1.000000" stroke="none" 
	d="
M24.706066,83.962555 
	C25.017492,83.943329 24.978498,84.306038 24.969629,84.487190 
	C24.527460,84.839195 24.094158,85.010048 23.317642,85.103378 
	C23.447830,84.677834 23.921234,84.329811 24.706066,83.962555 
z"/>
<path fill="#A1A0A0" opacity="1.000000" stroke="none" 
	d="
M22.725506,85.074287 
	C22.749933,85.314293 22.467541,85.648048 21.826599,86.002205 
	C21.784931,85.737755 22.101810,85.452896 22.725506,85.074287 
z"/>
<path fill="#696768" opacity="1.000000" stroke="none" 
	d="
M27.015116,81.142052 
	C26.870829,81.448822 26.647030,81.677917 26.112881,81.908852 
	C25.882040,81.988350 25.865236,81.532204 25.862644,81.304108 
	C25.860054,81.076019 26.103199,80.866646 26.361563,80.811798 
	C26.751657,80.885315 26.883387,81.013687 27.015116,81.142052 
z"/>
<path fill="#A1A0A0" opacity="1.000000" stroke="none" 
	d="
M38.671654,72.105850 
	C38.528751,72.308815 38.575661,72.241692 38.591347,72.280457 
	C38.513660,72.184296 38.420284,72.049377 38.326904,71.914459 
	C38.489452,71.910606 38.652004,71.906746 38.671654,72.105850 
z"/>
<path fill="#ABABAB" opacity="1.000000" stroke="none" 
	d="
M19.896645,79.508919 
	C19.944109,79.879295 19.778479,80.010712 19.311947,80.242966 
	C18.978413,80.064552 18.955439,79.784523 19.002651,79.307449 
	C19.269966,79.164116 19.476757,79.217033 19.896645,79.508919 
z"/>
<path fill="#979696" opacity="1.000000" stroke="none" 
	d="
M49.022079,90.630157 
	C48.825878,89.268837 48.883549,87.956108 49.196617,86.303696 
	C49.452023,85.964020 49.840790,85.919327 49.840790,85.919327 
	C49.922226,86.687469 50.003666,87.455620 50.190636,88.596497 
	C49.956093,89.539062 49.616020,90.108902 49.022079,90.630157 
z"/>
<path fill="#646263" opacity="1.000000" stroke="none" 
	d="
M49.906986,85.583466 
	C49.840790,85.919327 49.452023,85.964020 49.256393,85.965256 
	C48.733833,85.707336 48.406902,85.448181 47.763767,85.109474 
	C47.586182,84.573875 47.724796,84.117836 47.914680,83.305771 
	C48.635029,83.715698 49.304104,84.481651 49.906986,85.583466 
z"/>
<path fill="#E3E3E3" opacity="1.000000" stroke="none" 
	d="
M35.027481,77.445351 
	C35.586166,76.979866 36.144852,76.514381 36.976093,75.997528 
	C37.532612,76.421646 37.816574,76.897141 38.136780,78.054077 
	C37.260303,79.482727 36.347588,80.229927 35.373375,81.029495 
	C35.311874,81.081863 35.153599,81.144814 35.147175,81.139954 
	C35.140751,81.135094 35.143986,81.127907 35.164421,80.665771 
	C35.132397,79.284210 35.079941,78.364784 35.027481,77.445351 
z"/>
<path fill="#DADADA" opacity="1.000000" stroke="none" 
	d="
M41.014782,78.391830 
	C41.216183,79.138275 41.529251,79.776466 41.623169,80.763657 
	C41.274475,81.747513 41.144928,82.382370 40.721249,83.067535 
	C40.045223,83.007126 39.663330,82.896400 39.174850,82.406021 
	C39.092655,80.724716 39.117046,79.423058 39.141441,78.121399 
	C39.141441,78.121399 39.599377,78.113380 40.064678,78.123474 
	C40.529980,78.133568 41.000793,77.999077 41.000793,77.999077 
	C41.000793,77.999077 41.126446,78.283592 41.014782,78.391830 
z"/>
<path fill="#696768" opacity="1.000000" stroke="none" 
	d="
M38.957264,78.011833 
	C39.117046,79.423058 39.092655,80.724716 39.151283,82.771355 
	C39.139545,83.990715 39.044785,84.465088 38.950027,84.939468 
	C38.950027,84.939468 38.900021,84.989159 38.698952,84.982132 
	C38.497883,84.975105 38.139256,84.978683 38.056396,84.649231 
	C37.592827,83.512810 37.212112,82.705841 36.743744,81.870361 
	C36.656086,81.841835 36.553219,81.994820 36.312862,81.697289 
	C35.859959,81.258881 35.647415,81.117996 35.434875,80.977119 
	C36.347588,80.229927 37.260303,79.482727 38.258926,78.310257 
	C38.344841,77.884987 38.773090,77.902267 38.957264,78.011833 
z"/>
<path fill="#A1A0A0" opacity="1.000000" stroke="none" 
	d="
M40.937313,77.759689 
	C41.000793,77.999077 40.529980,78.133568 40.290318,78.084366 
	C40.050655,78.035164 39.926498,77.555817 39.983269,77.314926 
	C40.409832,77.051163 40.687767,77.199921 40.937313,77.759689 
z"/>
<path fill="#EFEFEF" opacity="1.000000" stroke="none" 
	d="
M32.478725,91.980850 
	C32.478725,91.980850 32.502419,91.979645 32.948448,91.945984 
	C33.645855,91.766136 33.897228,91.619942 34.205334,91.572891 
	C34.262062,91.672035 34.386547,91.863586 34.253204,92.077423 
	C34.094814,92.685333 34.270706,92.940567 34.647530,93.056976 
	C34.647530,93.056976 34.461411,93.346054 34.363384,93.487823 
	C32.483063,93.744423 30.700769,93.859245 28.525482,93.917290 
	C27.862225,93.407585 27.591961,92.954666 27.321697,92.501740 
	C27.204418,92.771782 27.087139,93.041817 26.926792,93.587502 
	C25.338642,93.801376 23.793564,93.739601 22.338341,93.222267 
	C22.532921,92.440964 22.637642,92.115219 23.049526,91.784073 
	C23.896601,91.492538 24.436516,91.206406 25.372438,90.994049 
	C26.267893,90.373451 26.767338,89.679100 27.266785,88.984749 
	C27.776724,89.212578 28.286661,89.440407 28.972912,90.302414 
	C30.259058,91.284668 31.368893,91.632759 32.478725,91.980850 
z"/>
<path fill="#9D9C9C" opacity="1.000000" stroke="none" 
	d="
M36.778824,90.757050 
	C36.560062,91.203926 36.341305,91.650810 35.537704,92.045914 
	C34.764095,91.950623 34.575321,91.907104 34.386547,91.863586 
	C34.386547,91.863586 34.262062,91.672035 34.157230,91.442406 
	C34.052399,91.212776 33.921764,90.948029 33.921764,90.948029 
	C33.921764,90.948029 33.967766,90.983345 34.268623,90.917549 
	C34.787582,90.817558 35.005684,90.783363 35.439240,90.741470 
	C35.654690,90.733765 36.028721,90.519241 36.241993,90.497482 
	C36.455265,90.475716 36.778824,90.757050 36.778824,90.757050 
z"/>
<path fill="#EFEFEF" opacity="1.000000" stroke="none" 
	d="
M37.069984,90.664001 
	C36.778824,90.757050 36.455265,90.475716 36.231056,90.508301 
	C36.006847,90.540894 35.983944,90.526367 36.392921,90.499062 
	C37.034729,90.328621 37.267563,90.185478 37.509537,90.057129 
	C37.518681,90.071907 37.517723,90.107933 37.566074,90.268860 
	C37.614426,90.429794 37.943359,90.498734 37.943359,90.498734 
	C37.943359,90.498734 37.945625,90.512741 37.954071,90.486847 
	C37.762058,90.497627 37.561604,90.534294 37.069984,90.664001 
z"/>
<path fill="#B3B3B3" opacity="1.000000" stroke="none" 
	d="
M34.253204,92.077423 
	C34.575321,91.907104 34.764095,91.950623 35.241081,92.039246 
	C35.437748,92.296585 35.346203,92.508820 34.951096,92.889008 
	C34.270706,92.940567 34.094814,92.685333 34.253204,92.077423 
z"/>
<path fill="#A7A6A7" opacity="1.000000" stroke="none" 
	d="
M17.708885,87.678169 
	C18.132113,87.715378 18.253424,87.963379 18.387102,88.625351 
	C18.077154,89.074715 17.754839,89.110115 16.951054,89.076469 
	C16.782047,88.634605 17.094507,88.261787 17.708885,87.678169 
z"/>
<path fill="#868485" opacity="1.000000" stroke="none" 
	d="
M22.742365,91.789474 
	C22.637642,92.115219 22.532921,92.440964 22.171440,92.867371 
	C21.696728,92.958923 21.478779,92.949829 20.930149,92.934944 
	C20.855843,92.643875 21.112217,92.358597 21.947124,91.833183 
	C22.525654,91.593056 22.742365,91.789474 22.742365,91.789474 
z"/>
<path fill="#EFEFEF" opacity="1.000000" stroke="none" 
	d="
M33.947098,61.565521 
	C32.966892,62.322701 32.052265,62.859028 31.092220,63.715004 
	C30.418083,63.017838 29.789368,62.001022 29.252190,60.622734 
	C29.343729,60.261265 29.686136,60.156326 29.837494,60.060642 
	C31.463053,60.051903 32.937252,60.138847 34.595196,60.538689 
	C34.472645,60.936893 34.217228,61.101254 33.947098,61.565521 
z"/>
<path fill="#E9EAE5" opacity="1.000000" stroke="none" 
	d="
M71.747925,78.585876 
	C70.139030,82.850060 69.003479,87.043282 63.626980,88.819153 
	C62.929432,81.649254 67.421936,77.820480 71.837608,72.589508 
	C71.837608,75.191536 71.837608,76.700287 71.747925,78.585876 
z"/>
<path fill="#F6F6F6" opacity="1.000000" stroke="none" 
	d="
M27.260387,81.118484 
	C26.883387,81.013687 26.751657,80.885315 26.364361,80.651382 
	C25.787075,79.914284 25.465357,79.282745 24.887314,78.361969 
	C24.630989,78.072731 24.573462,78.050842 24.362156,77.769997 
	C24.707813,76.343819 25.264774,75.198486 25.994171,73.795410 
	C26.086287,73.347206 26.005964,73.156746 26.120689,72.751175 
	C26.394268,72.359108 26.472801,72.182167 26.551332,72.005226 
	C26.824339,71.791298 27.097345,71.577370 27.624634,71.478546 
	C28.303747,71.726219 28.728580,71.858780 29.111765,72.411728 
	C29.038799,74.235023 29.007484,75.637932 28.991415,77.021317 
	C29.006660,77.001793 29.020233,76.954147 28.681419,77.098358 
	C28.185888,78.458824 28.029169,79.675072 27.882259,80.936424 
	C27.892073,80.981529 27.984308,80.977654 27.984308,80.977654 
	C27.984308,80.977654 27.505661,81.094917 27.260387,81.118484 
z"/>
<path fill="#5D5A5C" opacity="1.000000" stroke="none" 
	d="
M25.821735,74.053154 
	C25.264774,75.198486 24.707813,76.343819 24.339705,77.761726 
	C23.642870,77.600967 22.757185,77.167633 21.655483,76.361755 
	C22.103329,75.454468 22.767195,74.919724 23.982815,74.127792 
	C24.963627,73.931458 25.392681,73.992302 25.821735,74.053154 
z"/>
<path fill="#B3B3B3" opacity="1.000000" stroke="none" 
	d="
M29.153416,71.991348 
	C28.728580,71.858780 28.303747,71.726219 27.691525,71.316422 
	C27.762873,70.702637 28.021610,70.366074 28.466467,69.936295 
	C28.928623,69.978577 29.204662,70.114090 29.727173,70.905060 
	C29.991446,71.736748 30.009249,71.912971 30.010006,72.050423 
	C29.992964,72.011658 30.073315,72.035904 29.843035,72.031067 
	C29.612755,72.026230 29.153416,71.991348 29.153416,71.991348 
z"/>
<path fill="#5D5A5C" opacity="1.000000" stroke="none" 
	d="
M26.301357,71.824066 
	C26.472801,72.182167 26.394268,72.359108 25.705910,72.694855 
	C24.822620,72.914001 24.549156,72.974335 24.275692,73.034676 
	C24.867588,72.570755 25.459484,72.106834 26.301357,71.824066 
z"/>
<path fill="#868485" opacity="1.000000" stroke="none" 
	d="
M24.152849,73.147949 
	C24.549156,72.974335 24.822620,72.914001 25.510864,72.909973 
	C26.005964,73.156746 26.086287,73.347206 25.994171,73.795410 
	C25.392681,73.992302 24.963627,73.931458 24.209953,73.892639 
	C23.882170,73.685455 23.930393,73.467644 24.152849,73.147949 
z"/>
<path fill="#EFEFEF" opacity="1.000000" stroke="none" 
	d="
M33.022152,77.547821 
	C33.022152,77.547821 32.994045,77.498390 32.923069,77.790810 
	C32.607475,78.424438 32.362858,78.765648 31.824333,79.191277 
	C31.016376,79.858665 30.502325,80.441635 29.988274,81.024605 
	C29.988272,81.024605 30.013367,80.984230 29.812035,80.985008 
	C29.610704,80.985786 29.172789,80.897705 29.120445,80.505753 
	C29.052145,79.060585 29.036188,78.007362 29.020233,76.954147 
	C29.020233,76.954147 29.006660,77.001793 29.286720,76.785454 
	C29.735622,75.058044 29.904469,73.546974 30.073315,72.035904 
	C30.073315,72.035904 29.992964,72.011658 30.254612,72.205383 
	C31.020939,72.945061 31.525620,73.491028 32.030300,74.036987 
	C32.030300,74.036987 31.995569,73.998138 31.962921,74.370117 
	C32.294231,75.677330 32.658192,76.612579 33.022152,77.547821 
z"/>
<path fill="#575555" opacity="1.000000" stroke="none" 
	d="
M32.118240,79.106857 
	C32.362858,78.765648 32.607475,78.424438 32.910149,77.765488 
	C33.437691,77.550705 33.907181,77.653664 34.702076,77.600990 
	C35.079941,78.364784 35.132397,79.284210 34.854317,80.788025 
	C34.308598,81.427567 34.093410,81.482735 33.878220,81.537910 
	C33.461834,81.061150 33.045444,80.584381 32.359253,79.812065 
	C32.089443,79.516510 32.118240,79.106857 32.118240,79.106857 
z"/>
<path fill="#868485" opacity="1.000000" stroke="none" 
	d="
M32.031303,73.628220 
	C31.525620,73.491028 31.020939,72.945061 30.271656,72.244141 
	C30.009249,71.912971 29.991446,71.736748 29.973698,71.294922 
	C30.342411,70.993454 30.711071,70.957588 31.355003,70.872772 
	C31.764284,71.622353 31.898294,72.420898 32.031303,73.628220 
z"/>
<path fill="#7B7A7A" opacity="1.000000" stroke="none" 
	d="
M33.066505,77.147461 
	C32.658192,76.612579 32.294231,75.677330 31.954018,74.345627 
	C32.355465,74.881813 32.733166,75.814461 33.066505,77.147461 
z"/>
<path fill="#9D9C9C" opacity="1.000000" stroke="none" 
	d="
M39.282211,84.886612 
	C39.044785,84.465088 39.139545,83.990715 39.257874,83.151001 
	C39.663330,82.896400 40.045223,83.007126 40.713066,83.058777 
	C40.999012,82.999702 40.981117,82.983986 41.025288,83.209625 
	C41.388840,83.283218 41.708221,83.131165 42.046860,82.959686 
	C42.066113,82.940254 42.110603,82.908417 42.110603,82.908417 
	C42.436512,83.355965 42.762421,83.803505 43.127121,84.543892 
	C42.839466,85.035645 42.513020,85.234558 42.097652,85.712379 
	C41.210621,85.605438 40.412510,85.219597 39.282211,84.886612 
z"/>
<path fill="#9D9C9C" opacity="1.000000" stroke="none" 
	d="
M41.007195,83.008469 
	C41.144928,82.382370 41.274475,81.747513 41.720688,81.014603 
	C42.082935,81.360207 42.128513,81.803864 42.142349,82.577965 
	C42.110603,82.908417 42.066113,82.940254 41.785110,82.963676 
	C41.329781,82.986061 41.155449,82.985023 40.981117,82.983986 
	C40.981117,82.983986 40.999012,82.999702 41.007195,83.008469 
z"/>
<path fill="#7B7A7A" opacity="1.000000" stroke="none" 
	d="
M38.139256,84.978683 
	C38.139256,84.978683 38.497883,84.975105 38.675896,84.955475 
	C38.890732,86.010483 38.927559,87.085129 38.703499,88.579079 
	C38.442612,88.998383 38.013538,88.993660 38.003311,88.646774 
	C37.931023,87.843155 37.868958,87.386429 37.855171,86.602554 
	C37.982056,85.843170 38.060654,85.410927 38.139256,84.978683 
z"/>
<path fill="#979696" opacity="1.000000" stroke="none" 
	d="
M38.013538,88.993660 
	C38.013538,88.993660 38.442612,88.998383 38.656288,88.979614 
	C38.912777,89.145195 38.955593,89.329552 39.024185,89.796967 
	C38.876476,90.178680 38.702999,90.277359 38.236439,90.437378 
	C37.943359,90.498734 37.614426,90.429794 37.688660,89.989365 
	C37.846439,89.363846 37.929989,89.178757 38.013538,88.993660 
z"/>
<path fill="#373435" opacity="1.000000" stroke="none" 
	d="
M23.049526,91.784073 
	C22.742365,91.789474 22.525654,91.593056 22.460026,91.572525 
	C22.209827,91.486794 22.025257,91.421577 21.530945,91.457863 
	C21.221201,91.559357 21.282324,91.583939 21.282322,91.583939 
	C21.966627,90.901062 22.650934,90.218185 23.398060,89.241257 
	C23.717480,88.928215 23.974083,88.909233 24.624222,89.288147 
	C25.003983,90.097450 24.990204,90.508865 24.976427,90.920273 
	C24.436516,91.206406 23.896601,91.492538 23.049526,91.784073 
z"/>
<path fill="#A1A0A0" opacity="1.000000" stroke="none" 
	d="
M20.956104,91.355728 
	C21.282324,91.583939 21.221201,91.559357 21.253323,91.553474 
	C20.463095,91.714073 19.640749,91.880562 18.392952,92.027832 
	C18.854963,91.714912 19.742424,91.421219 20.956104,91.355728 
z"/>
<path fill="#ABABAB" opacity="1.000000" stroke="none" 
	d="
M21.480354,89.014915 
	C21.793842,88.750816 22.505035,88.524673 23.336256,88.631012 
	C22.930208,88.993279 22.404133,89.023079 21.480354,89.014915 
z"/>
<path fill="#868485" opacity="1.000000" stroke="none" 
	d="
M36.553219,81.994820 
	C36.553219,81.994820 36.656086,81.841835 36.442665,82.059990 
	C36.036480,83.164200 35.843716,84.050247 35.546661,84.914757 
	C35.442368,84.893211 35.229427,84.897697 35.229427,84.897697 
	C34.775726,84.018494 34.322025,83.139290 34.166836,81.829163 
	C34.657669,81.468437 34.849991,81.538628 35.363331,81.927299 
	C35.973976,82.162117 36.263599,82.078468 36.553219,81.994820 
z"/>
<path fill="#5D5A5C" opacity="1.000000" stroke="none" 
	d="
M25.372437,90.994041 
	C24.990204,90.508865 25.003983,90.097450 24.999628,89.377777 
	C25.326406,88.915184 25.671316,88.760864 26.264599,88.414429 
	C26.512972,88.222305 26.663883,88.148178 26.663883,88.148178 
	C26.745316,88.301323 26.826746,88.454475 27.087479,88.796188 
	C26.767338,89.679100 26.267893,90.373451 25.372437,90.994041 
z"/>
<path fill="#B3B3B3" opacity="1.000000" stroke="none" 
	d="
M32.265221,91.727280 
	C31.368893,91.632759 30.259058,91.284668 29.105240,90.558426 
	C30.058071,90.611420 31.054892,91.042564 32.265221,91.727280 
z"/>
<path fill="#E1E1E1" opacity="1.000000" stroke="none" 
	d="
M35.983944,90.526367 
	C35.983944,90.526367 36.006847,90.540894 36.017784,90.530067 
	C36.028721,90.519241 35.654690,90.733765 35.282852,90.492332 
	C34.582890,90.036476 34.254772,89.822060 33.926651,89.607643 
	C33.926651,89.607643 33.915646,89.330437 33.953026,89.167786 
	C33.990406,89.005127 34.039776,88.950653 34.039776,88.950653 
	C34.315399,88.742798 34.591022,88.534935 35.203690,88.154099 
	C35.540733,87.981117 35.996807,88.015976 35.998810,88.001755 
	C36.000809,87.987534 35.970993,87.984108 35.941212,88.406776 
	C35.935600,89.395088 35.959770,89.960724 35.983944,90.526367 
z"/>
<path fill="#A1A0A0" opacity="1.000000" stroke="none" 
	d="
M35.996807,88.015976 
	C35.996807,88.015976 35.540733,87.981117 35.321247,87.917755 
	C35.082462,87.111008 35.063164,86.367622 35.136646,85.260963 
	C35.229427,84.897697 35.442368,84.893211 35.682110,85.225243 
	C36.027359,85.996025 36.132862,86.434769 36.166908,87.156799 
	C36.062572,87.632042 36.029690,87.824013 35.996807,88.015976 
z"/>
<path fill="#ABABAB" opacity="1.000000" stroke="none" 
	d="
M31.824333,79.191277 
	C32.118240,79.106857 32.089443,79.516510 32.050766,79.718140 
	C31.549444,80.293083 31.086800,80.666389 30.306213,81.032150 
	C30.502325,80.441635 31.016376,79.858665 31.824333,79.191277 
z"/>
<path fill="#8E8D8E" opacity="1.000000" stroke="none" 
	d="
M27.020569,85.389145 
	C26.948265,84.929337 26.990318,84.729553 27.047722,84.223648 
	C27.236092,83.952309 27.409111,83.987099 27.844954,84.053642 
	C27.783493,84.606659 27.459209,85.127922 27.020569,85.389145 
z"/>
<path fill="#696768" opacity="1.000000" stroke="none" 
	d="
M29.172789,80.897705 
	C29.172789,80.897705 29.610704,80.985786 29.833824,80.975464 
	C29.687513,81.414154 29.318081,81.863167 28.730606,82.508850 
	C28.401445,82.424583 28.290327,82.143661 28.081757,81.420197 
	C27.984308,80.977654 27.892073,80.981529 28.207420,80.949081 
	C28.739441,80.910332 28.956116,80.904015 29.172789,80.897705 
z"/>
<path fill="#B3B3B3" opacity="1.000000" stroke="none" 
	d="
M33.727123,91.167427 
	C33.921764,90.948029 34.052399,91.212776 34.100502,91.343262 
	C33.897228,91.619942 33.645855,91.766136 32.959858,91.949242 
	C32.860981,91.786377 33.196732,91.586601 33.727123,91.167427 
z"/>
<path fill="#E3E3E3" opacity="1.000000" stroke="none" 
	d="
M35.042313,81.608826 
	C34.849991,81.538628 34.657669,81.468437 34.161278,81.440926 
	C33.857208,81.483612 33.900902,81.496620 33.889561,81.517265 
	C34.093410,81.482735 34.308598,81.427567 34.833885,81.250153 
	C35.143986,81.127907 35.140751,81.135094 35.114166,81.254639 
	C35.087578,81.374184 35.042313,81.608826 35.042313,81.608826 
z"/>
<path fill="#B3B3B3" opacity="1.000000" stroke="none" 
	d="
M33.854378,89.940735 
	C34.254772,89.822060 34.582890,90.036476 35.067398,90.500031 
	C35.005684,90.783363 34.787582,90.817558 34.240940,90.897339 
	C33.868969,90.719894 33.825535,90.496857 33.854378,89.940735 
z"/>
<path fill="#E1E1E1" opacity="1.000000" stroke="none" 
	d="
M33.962818,89.029419 
	C33.815208,88.879311 33.695183,88.704910 33.575157,88.530510 
	C33.681419,88.573509 33.787678,88.616501 33.966858,88.805077 
	C34.039776,88.950653 33.990406,89.005127 33.962818,89.029419 
z"/>
<path fill="#8E8D8E" opacity="1.000000" stroke="none" 
	d="
M26.736042,87.925095 
	C26.663883,88.148178 26.512972,88.222305 26.436745,88.187042 
	C26.509745,88.001854 26.658972,87.851936 26.736042,87.925095 
z"/>
<path fill="#E9EAE5" opacity="1.000000" stroke="none" 
	d="
M35.363331,81.927299 
	C35.042313,81.608826 35.087578,81.374184 35.120590,81.259499 
	C35.153599,81.144814 35.311874,81.081863 35.373375,81.029495 
	C35.647415,81.117996 35.859959,81.258881 36.312862,81.697289 
	C36.263599,82.078468 35.973976,82.162117 35.363331,81.927299 
z"/>
<path fill="#F5F5F5" opacity="1.000000" stroke="none" 
	d="
M36.238365,86.873520 
	C36.132862,86.434769 36.027359,85.996025 35.786400,85.246788 
	C35.843716,84.050247 36.036480,83.164200 36.530319,82.088516 
	C37.212112,82.705841 37.592827,83.512810 38.056396,84.649231 
	C38.060654,85.410927 37.982056,85.843170 37.593010,86.608612 
	C36.934498,86.919052 36.586430,86.896286 36.238365,86.873520 
z"/>
<path fill="#D4D3D3" opacity="1.000000" stroke="none" 
	d="
M36.166908,87.156799 
	C36.586430,86.896286 36.934498,86.919052 37.544727,86.935760 
	C37.868958,87.386429 37.931023,87.843155 38.003311,88.646774 
	C37.929989,89.178757 37.846439,89.363846 37.640308,89.828438 
	C37.517723,90.107933 37.518681,90.071907 37.389267,89.739090 
	C36.830235,88.932213 36.400616,88.458160 35.970993,87.984108 
	C35.970993,87.984108 36.000809,87.987534 35.998810,88.001755 
	C36.029690,87.824013 36.062572,87.632042 36.166908,87.156799 
z"/>
<path fill="#9D9C9C" opacity="1.000000" stroke="none" 
	d="
M35.941212,88.406776 
	C36.400616,88.458160 36.830235,88.932213 37.380127,89.724304 
	C37.267563,90.185478 37.034729,90.328621 36.392921,90.499062 
	C35.959770,89.960724 35.935600,89.395088 35.941212,88.406776 
z"/>
<path fill="#8E8D8E" opacity="1.000000" stroke="none" 
	d="
M29.843035,72.031067 
	C29.904469,73.546974 29.735622,75.058044 29.271473,76.804977 
	C29.007484,75.637932 29.038799,74.235023 29.111765,72.411728 
	C29.153416,71.991348 29.612755,72.026230 29.843035,72.031067 
z"/>
<path fill="#868485" opacity="1.000000" stroke="none" 
	d="
M29.120445,80.505753 
	C28.956116,80.904015 28.739441,80.910332 28.197609,80.903976 
	C28.029169,79.675072 28.185888,78.458824 28.681419,77.098358 
	C29.036188,78.007362 29.052145,79.060585 29.120445,80.505753 
z"/>
<path fill="#DADADA" opacity="1.000000" stroke="none" 
	d="
M41.025288,83.209625 
	C41.155449,82.985023 41.329781,82.986061 41.765858,82.983109 
	C41.708221,83.131165 41.388840,83.283218 41.025288,83.209625 
z"/>
</svg>