<?xml version="1.0" standalone="no"?>
<!DOCTYPE svg PUBLIC "-//W3C//DTD SVG 20010904//EN"
 "http://www.w3.org/TR/2001/REC-SVG-20010904/DTD/svg10.dtd">
<svg version="1.0" xmlns="http://www.w3.org/2000/svg"
 width="150.000000pt" height="163.000000pt" viewBox="0 0 150.000000 163.000000"
 preserveAspectRatio="xMidYMid meet">

<g transform="translate(0.000000,163.000000) scale(0.100000,-0.100000)"
fill="#000000" stroke="none">
<path d="M137 1593 c-4 -3 -7 -197 -7 -430 l0 -423 30 0 30 0 0 400 0 400 615
0 615 0 0 -610 0 -609 -152 -3 -153 -3 -3 -27 -3 -28 185 0 186 0 0 670 0 670
-668 0 c-368 0 -672 -3 -675 -7z"/>
<path d="M190 632 c-72 -35 -170 -131 -170 -166 0 -34 22 -52 106 -87 38 -16
77 -38 88 -49 20 -20 20 -20 -24 -57 -65 -53 -128 -122 -136 -145 -7 -25 12
-40 41 -32 69 20 147 110 160 182 4 26 16 44 38 60 31 22 32 22 35 2 4 -25 19
-26 44 -3 19 17 19 16 14 -7 -11 -49 -46 -268 -46 -289 0 -48 22 -3 66 139 35
109 51 147 61 143 7 -3 20 0 28 7 12 10 15 9 15 -9 0 -24 31 -29 49 -7 7 8 20
12 30 9 12 -3 25 4 34 18 l16 22 10 -25 c5 -14 15 -29 21 -33 13 -8 57 29 65
55 3 10 19 20 35 22 24 4 29 1 26 -11 -22 -70 -24 -131 -6 -131 4 0 22 16 39
36 26 29 35 33 46 24 8 -6 23 -9 34 -5 22 7 94 85 86 93 -3 3 -21 -13 -41 -36
-63 -74 -104 -39 -49 42 29 43 32 59 8 54 -11 -2 -28 -29 -46 -73 -31 -77 -77
-137 -77 -99 0 11 7 44 16 73 17 59 13 71 -17 52 -28 -17 -32 -10 -13 27 21
43 9 60 -22 31 -16 -15 -24 -34 -24 -55 0 -37 -40 -92 -58 -80 -7 4 -12 20
-12 37 0 36 -12 37 -39 3 -23 -29 -27 -21 -11 21 8 20 15 26 30 22 20 -5 28 7
11 17 -16 10 -36 -4 -55 -37 -23 -39 -56 -77 -68 -77 -5 0 -6 16 -2 35 7 39
-8 48 -26 15 -16 -29 -33 -25 -26 6 5 19 3 25 -6 22 -7 -3 -34 -69 -59 -149
-26 -79 -47 -142 -48 -138 -1 3 10 68 24 144 13 76 23 141 20 143 -2 3 -16
-10 -31 -27 -31 -37 -40 -35 -23 3 8 16 24 29 43 34 24 6 27 10 13 15 -11 4
-41 -10 -89 -42 l-72 -49 -27 22 c-14 12 -60 37 -102 55 -41 18 -78 40 -81 48
-15 39 70 128 168 174 70 33 100 36 116 12 10 -16 10 -16 8 2 -5 32 -71 31
-138 -3z m568 -207 c-6 -14 -13 -23 -15 -21 -5 5 15 46 22 46 3 0 -1 -11 -7
-25z m-540 -203 c-33 -65 -148 -142 -148 -99 1 29 161 180 168 158 2 -7 -7
-33 -20 -59z"/>
</g>
</svg>
